<?xml version="1.0" encoding="utf-8"?>
<!-- Generator: Adobe Illustrator 27.7.0, SVG Export Plug-In . SVG Version: 6.00 Build 0)  -->
<svg version="1.1" id="Layer_1" xmlns="http://www.w3.org/2000/svg" xmlns:xlink="http://www.w3.org/1999/xlink" x="0px" y="0px"
	 viewBox="0 0 1274.5 312.6" style="enable-background:new 0 0 1274.5 312.6;" xml:space="preserve">
<style type="text/css">
	.st0{fill:#231F20;}
	.st1{fill:#268C44;}
</style>
<g>
	<g>
		<path class="st0" d="M345.2,91.1v-0.3c0-30.7,23.6-54.7,55.5-54.7c21.5,0,35.3,9,44.7,21.9l-22,17c-6-7.5-12.9-12.3-23-12.3
			c-14.7,0-25.1,12.5-25.1,27.8v0.3c0,15.8,10.4,28.1,25.1,28.1c11,0,17.4-5.1,23.8-12.8l21.9,15.6c-9.9,13.7-23.3,23.8-46.6,23.8
			C369.4,145.5,345.2,122.5,345.2,91.1z"/>
		<path class="st0" d="M453.9,33.6h28.6v39.5c5.3-6.8,12.8-12.9,24.4-12.9c17.3,0,27.7,11.4,27.7,29.9v53.2h-28.6v-44
			c0-8.9-4.7-13.7-11.4-13.7c-6.9,0-12,4.8-12,13.7v44h-28.6V33.6z"/>
		<path class="st0" d="M542.9,103.1v-0.3c0-23.2,18.9-42.5,45.1-42.5c26,0,44.8,19.1,44.8,42.2v0.3c0,23.2-18.9,42.5-45.1,42.5
			C561.7,145.3,542.9,126.2,542.9,103.1z M605,103.1v-0.3c0-9.9-7.2-18.3-17.3-18.3c-10.4,0-17,8.3-17,18v0.3
			c0,9.9,7.2,18.3,17.3,18.3C598.4,121.1,605,112.9,605,103.1z"/>
		<path class="st0" d="M641.9,33.6h29.8v21h-29.8V33.6z M642.5,62H671v81.3h-28.6V62z"/>
		<path class="st0" d="M680.7,103.1v-0.3c0-23,17.9-42.4,43.6-42.4c16.7,0,27.8,7.2,34.7,18.2L739.6,93c-3.9-5.4-8.3-8.6-15.2-8.6
			c-9.2,0-15.9,8.1-15.9,18v0.3c0,10.5,6.6,18.5,16.2,18.5c6.8,0,11.1-3.2,15.6-8.4l19.1,13.8c-7.5,11.1-18.3,18.6-36.2,18.6
			C698.7,145.3,680.7,126.1,680.7,103.1z"/>
		<path class="st0" d="M761,103.1v-0.3c0-23.8,17-42.5,41-42.5c28.1,0,41,20.6,41,44.5c0,1.8,0,3.9-0.1,5.9h-54.4
			c2.3,8.9,8.7,13.4,17.6,13.4c6.8,0,12.2-2.6,18-8.3l15.8,13.1c-7.8,9.9-19.1,16.5-35.3,16.5C779,145.3,761,128.3,761,103.1z
			 M816.3,96c-1-9-6.3-14.7-14.1-14.7c-7.5,0-12.6,5.9-14.1,14.7H816.3z"/>
		<path class="st0" d="M385.2,171.1h28.1l44.8,106h-31.3l-7.7-18.8h-40.6L371,277h-30.7L385.2,171.1z M410.7,235.5L399,205.6
			l-11.9,29.9H410.7z"/>
		<path class="st0" d="M457.1,236.8v-0.3c0-23,17.9-42.4,43.6-42.4c16.7,0,27.8,7.2,34.7,18.2L516,226.7c-3.9-5.4-8.3-8.6-15.2-8.6
			c-9.2,0-15.9,8.1-15.9,18v0.3c0,10.5,6.6,18.5,16.2,18.5c6.8,0,11.1-3.2,15.6-8.4l19.1,13.8c-7.5,11.1-18.3,18.6-36.2,18.6
			C475.1,279,457.1,259.8,457.1,236.8z"/>
		<path class="st0" d="M537.4,236.8v-0.3c0-23,17.9-42.4,43.6-42.4c16.7,0,27.8,7.2,34.7,18.2l-19.4,14.4c-3.9-5.4-8.3-8.6-15.2-8.6
			c-9.2,0-15.9,8.1-15.9,18v0.3c0,10.5,6.6,18.5,16.2,18.5c6.8,0,11.1-3.2,15.6-8.4l19.1,13.8c-7.5,11.1-18.3,18.6-36.2,18.6
			C555.4,279,537.4,259.8,537.4,236.8z"/>
		<path class="st0" d="M617.7,236.8v-0.3c0-23.2,18.9-42.5,45.1-42.5c26,0,44.8,19.1,44.8,42.2v0.3c0,23.2-18.9,42.5-45.1,42.5
			C636.5,279,617.7,259.9,617.7,236.8z M679.8,236.8v-0.3c0-9.9-7.2-18.3-17.3-18.3c-10.4,0-17,8.3-17,18v0.3
			c0,9.9,7.2,18.3,17.3,18.3C673.1,254.8,679.8,246.5,679.8,236.8z"/>
		<path class="st0" d="M716,248.9v-53.2h28.6v44c0,8.9,4.7,13.7,11.6,13.7c6.8,0,11.9-4.8,11.9-13.7v-44h28.6V277H768v-11.1
			c-5.3,6.8-12.8,12.9-24.4,12.9C726.4,278.8,716,267.4,716,248.9z"/>
		<path class="st0" d="M808.9,195.7h28.6v11.4c5.3-6.8,12.8-13.2,24.4-13.2c17.3,0,27.7,11.4,27.7,29.9V277H861v-44
			c0-8.9-4.7-13.7-11.4-13.7c-6.9,0-12,4.8-12,13.7v44h-28.6V195.7z"/>
		<path class="st0" d="M906.2,251.8v-33.1h-9.6v-23h9.6v-20.6h28.6v20.6h18.9v23h-18.9v27.5c0,5.7,2.6,8.1,7.8,8.1
			c3.8,0,7.4-1.1,10.8-2.7V274c-5.1,2.9-11.9,4.7-19.8,4.7C916.5,278.7,906.2,271.2,906.2,251.8z"/>
		<path class="st0" d="M959,253.7v-0.3c0-16.8,12.8-25.6,31.9-25.6c7.5,0,14.9,1.5,19.5,3.2v-1.4c0-8.4-5.3-13.2-16.2-13.2
			c-8.6,0-15.2,1.7-22.4,4.5l-5.9-20.1c9.2-3.8,18.9-6.3,32.9-6.3c14.6,0,24.5,3.5,31,9.9c6.2,6,8.7,14.4,8.7,25.9V277h-28.3v-8.4
			c-5.6,6.2-13.2,10.2-23.9,10.2C970.9,278.8,959,270,959,253.7z M1010.7,247.6v-3.8c-2.9-1.2-6.9-2.1-11.1-2.1
			c-8.3,0-13.1,4.1-13.1,10.1v0.3c0,5.6,4.2,8.9,10.1,8.9C1004.9,261,1010.7,255.7,1010.7,247.6z"/>
		<path class="st0" d="M1050.1,195.7h28.6v11.4c5.3-6.8,12.8-13.2,24.4-13.2c17.3,0,27.7,11.4,27.7,29.9V277h-28.6v-44
			c0-8.9-4.7-13.7-11.4-13.7c-6.9,0-12,4.8-12,13.7v44h-28.6V195.7z"/>
		<path class="st0" d="M1147.4,251.8v-33.1h-9.6v-23h9.6v-20.6h28.6v20.6h18.9v23H1176v27.5c0,5.7,2.6,8.1,7.8,8.1
			c3.8,0,7.4-1.1,10.8-2.7V274c-5.1,2.9-11.9,4.7-19.8,4.7C1157.7,278.7,1147.4,271.2,1147.4,251.8z"/>
		<path class="st0" d="M1198.1,266.8l10.7-17.3c9.3,6.2,19.5,9.3,28,9.3c5,0,7.2-1.5,7.2-4.4v-0.3c0-3.2-4.5-4.5-13.1-6.9
			c-16.1-4.2-28.9-9.6-28.9-26V221c0-17.3,13.8-26.9,32.6-26.9c11.9,0,24.2,3.5,33.5,9.5l-9.8,18c-8.4-4.7-17.6-7.5-24.1-7.5
			c-4.4,0-6.6,1.7-6.6,3.9v0.3c0,3.2,4.7,4.7,13.2,7.2c16.1,4.5,28.9,10.1,28.9,25.9v0.3c0,17.9-13.4,27.2-33.2,27.2
			C1222.9,278.8,1209.4,274.9,1198.1,266.8z"/>
	</g>
	<path class="st1" d="M188,205.9c-13.2,13.2-30.9,20.5-49.6,20.5s-36.3-7.3-49.6-20.5c-13.2-13.2-20.5-30.9-20.5-49.6
		s7.3-36.3,20.5-49.6c27.3-27.3,71.8-27.3,99.2,0c6.2,6.2,14.3,9.3,22.5,9.3c8.1,0,16.3-3.1,22.5-9.3c12.4-12.4,12.4-32.5,0-44.9
		C180.8,9.6,96,9.6,43.8,61.7C18.6,87,4.7,120.5,4.7,156.3s13.9,69.3,39.2,94.5c25.2,25.3,58.8,39.2,94.5,39.2s69.3-13.9,94.5-39.2
		c12.4-12.4,12.4-32.5,0-44.9C220.5,193.4,200.4,193.4,188,205.9z"/>
</g>
</svg>
