<?xml version="1.0" encoding="utf-8"?>
<!-- Generator: Adobe Illustrator 26.5.0, SVG Export Plug-In . SVG Version: 6.00 Build 0)  -->
<svg version="1.1" id="Warstwa_1" xmlns="http://www.w3.org/2000/svg" xmlns:xlink="http://www.w3.org/1999/xlink" x="0px" y="0px"
	 viewBox="0 0 137 121.2" style="enable-background:new 0 0 137 121.2;" xml:space="preserve">
<style type="text/css">
	.st0{fill:#268d44;}
	.st1{fill:#FFFFFF;}
</style>
<path class="st0" d="M102.9,64.6L66.7,86c-0.8,0.4-1.6,0.7-2.5,0.7c-2.7,0-4.9-2.2-4.9-4.9V39c0-0.9,0.2-1.8,0.7-2.6
	c1.4-2.3,4.4-3.1,6.7-1.7l36.2,21.4v0c0.7,0.4,1.3,1,1.7,1.7C106,60.2,105.2,63.2,102.9,64.6z"/>
<path class="st1" d="M130.6,51.2L130.6,51.2L50.4,3.8c-5.1-3.1-11.8-1.5-14.9,3.7c-1,1.7-1.6,3.7-1.6,5.7V108
	c0,6,4.9,10.9,10.9,10.9c2,0,3.9-0.5,5.6-1.5L130.6,70c5.2-3.1,6.9-9.7,3.9-15C133.5,53.5,132.2,52.1,130.6,51.2z"/>
</svg>
