<?xml version="1.0" encoding="UTF-8"?>
<svg xmlns="http://www.w3.org/2000/svg" viewBox="0 0 48 48">
  <path id="Icon_awesome-briefcase" data-name="Icon awesome-briefcase" d="M30,31.5c0,.83-.67,1.5-1.5,1.5h-9c-.83,0-1.5-.67-1.5-1.5v-4.5H0v13.5c.06,2.46,2.04,4.44,4.5,4.5H43.5c2.46-.06,4.44-2.04,4.5-4.5v-13.5H30v4.5Zm13.5-19.5h-7.5V7.5c-.06-2.46-2.04-4.44-4.5-4.5h-15c-2.46,.06-4.44,2.04-4.5,4.5v4.5H4.5c-2.46,.06-4.44,2.04-4.5,4.5v7.5H48v-7.5c-.06-2.46-2.04-4.44-4.5-4.5Zm-13.5,0h-12v-3h12v3Z" fill="#159dd8"/>
</svg>
