<?xml version="1.0" encoding="UTF-8"?> <svg xmlns="http://www.w3.org/2000/svg" xmlns:xlink="http://www.w3.org/1999/xlink" width="223px" height="87px" viewBox="0 0 223 87" version="1.1"><title>CDM/Logo white green</title><g id="Page-1" stroke="none" stroke-width="1" fill="none" fill-rule="evenodd"><g id="CDM---Homepage-1920px-V4" transform="translate(-58.000000, -56.000000)"><g id="Group" transform="translate(51.000000, 51.000000)"><g id="CDM-rev-logo" transform="translate(5.827160, 5.823529)"><path d="M61.8553086,20.6152941 C58.9271605,10.5260294 54.4402469,7.10470588 49.2540741,6.69705882 C43.2083951,6.55147059 37.8182716,7.20661765 33.3896296,8.99735294 C23.3523457,12.6516176 16.7385185,19.1885294 15.1069136,29.9329412 C13.577284,44.1569118 19.4918519,53.8385294 32.6612346,58.9777941 C38.4883951,61.2489706 44.9419753,61.2926471 51.0896296,61.4236765 C55.5619753,61.5255882 59.888642,61.3072059 62.4525926,59.8222059 L62.4525926,67.4510294 C60.5441975,67.1307353 58.2424691,67.5092647 56.5088889,67.4801471 C49.5745679,67.3636765 43.5725926,67.8441176 35.7059259,66.5338235 C30.4906173,65.6748529 24.3866667,63.7530882 16.4325926,59.5747059 C6.65753086,53.6055882 0.203950617,41.9876471 1.66074074,29.9183824 C5.75432099,12.0110294 18.2390123,4.61514706 34.2491358,1.65970588 C38.2261728,0.917205882 41.9264198,0.786176471 45.9617284,0.800735294 C51.6723457,0.829852941 57.4412346,0.931764706 62.5691358,0.0291176471 L62.685679,22.1730882 C62.5254321,23.5561765 62.2340741,23.0320588 61.8553086,20.6152941" id="Path" fill="#FFFFFF"></path><path d="M68.8187654,0.0436764706 C71.834321,1.15014706 75.7676543,1.12102941 79.8320988,0.931764706 L94.4874074,1.32485294 C96.0316049,1.36852941 97.5758025,1.77617647 99.0762963,2.16926471 C105.602716,3.84352941 111.560988,8.47323529 115.377778,15.4614706 C116.586914,17.6016176 115.523457,16.8008824 114.955309,15.9564706 C112.478765,12.3895588 108.020988,9.78352941 99.3093827,9.20117647 L79.6281481,8.63338235 C74.0340741,7.65794118 70.7854321,4.67338235 68.8187654,0.0436764706" id="Path" fill="#7BB315"></path><path d="M119.267407,9.07014706 C120.403704,11.5160294 122.690864,13.1175 123.302716,15.6070588 C126.33284,27.7636765 125.225679,40.0367647 115.377778,50.6792647 C113.673333,52.5282353 110.963704,54.0423529 108.589136,55.7748529 C101.858765,58.6575 95.5217284,60.3463235 89.9567901,60.8558824 C80.0360494,61.7876471 72.562716,58.1916176 69.6054321,45.0304412 L69.6054321,67.9897059 C75.9716049,64.9032353 90.0733333,66.9705882 97.1387654,66.825 C126.099753,65.0197059 138.395062,44.2733824 134.374321,29.4233824 C131.285926,19.3341176 126.012346,12.9427941 119.267407,9.07014706" id="Path" fill="#FFFFFF"></path><path d="M123.725185,1.31029412 L136.909136,1.33941176 L164.034568,52.2370588 L194.117284,1.10647059 L210.608148,1.10647059 C205.888148,1.65970588 203.571852,3.85808824 203.630123,7.70161765 L203.440741,57.5219118 C203.295062,63.1707353 204.926667,66.9123529 210.141975,67.1889706 L191.261975,67.2180882 C192.762469,64.9905882 193.039259,62.5738235 192.762469,60.0405882 L192.951852,16.4369118 L164.09284,67.4073529 L131.023704,7.70161765 C129.202716,4.39676471 127.979012,1.83441176 123.725185,1.31029412" id="Path" fill="#FFFFFF"></path><path d="M219.13037,57.8422059 C221.898272,57.8422059 224.12716,60.0842647 224.12716,62.8358824 C224.12716,65.6020588 221.883704,67.8295588 219.13037,67.8295588 C216.362469,67.8295588 214.13358,65.5875 214.13358,62.8358824 C214.13358,60.0697059 216.362469,57.8422059 219.13037,57.8422059" id="Path" fill="#7BB315"></path><path d="M157.84321,79.2436765 L156.473827,82.3447059 C155.963951,83.5094118 155.541481,84.5285294 155.20642,85.4020588 L155.017037,85.4020588 C154.900494,85.0963235 154.58,84.3392647 154.040988,83.1017647 L152.394815,79.3747059 L152.394815,83.2619118 C152.394815,84.1645588 152.423951,84.6741176 152.49679,84.8051471 C152.56963,84.9216176 152.77358,84.9944118 153.108642,84.9944118 L153.283457,84.9944118 L153.283457,85.3147059 C152.860988,85.2855882 152.511358,85.2710294 152.234568,85.2710294 C152.045185,85.2710294 151.651852,85.2855882 151.083704,85.3147059 L151.083704,84.9944118 L151.38963,84.9944118 C151.59358,84.9944118 151.724691,84.9652941 151.797531,84.8925 C151.87037,84.8342647 151.899506,84.7177941 151.928642,84.5430882 C151.972346,84.0772059 151.986914,83.5676471 151.986914,83.0289706 L151.986914,80.19 C151.986914,79.5057353 151.972346,79.0544118 151.94321,78.8360294 C151.928642,78.7195588 151.884938,78.6322059 151.812099,78.5739706 C151.739259,78.5157353 151.579012,78.4866176 151.345926,78.4866176 L151.098272,78.4866176 L151.098272,78.1663235 C151.637284,78.1954412 151.972346,78.1954412 152.103457,78.1954412 C152.278272,78.1954412 152.525926,78.1808824 152.84642,78.1663235 C153.225185,79.0689706 153.647654,80.0589706 154.128395,81.1508824 L155.337531,83.8733824 L156.459259,81.3547059 C156.852593,80.4666176 157.304198,79.4183824 157.814074,78.1808824 C158.19284,78.21 158.46963,78.21 158.629877,78.21 C158.804691,78.21 159.139753,78.1954412 159.620494,78.1808824 L159.620494,78.5011765 L159.314568,78.5011765 C159.037778,78.5011765 158.877531,78.5448529 158.819259,78.6467647 C158.760988,78.7486765 158.731852,79.1126471 158.731852,79.7532353 L158.731852,83.4220588 C158.731852,84.2373529 158.760988,84.7032353 158.819259,84.8342647 C158.877531,84.9507353 159.052346,85.0089706 159.343704,85.0089706 L159.605926,85.0089706 L159.605926,85.3292647 C159.183457,85.3001471 158.775556,85.2855882 158.382222,85.2855882 C157.945185,85.2855882 157.49358,85.3001471 157.027407,85.3292647 L157.027407,85.0089706 L157.333333,85.0089706 C157.580988,85.0089706 157.726667,84.9507353 157.77037,84.8342647 C157.828642,84.7177941 157.84321,84.2227941 157.84321,83.3492647 L157.84321,79.2436765 Z M164.660988,82.8979412 L161.995062,82.8979412 L161.689136,83.7132353 C161.485185,84.2519118 161.38321,84.5722059 161.38321,84.7032353 C161.38321,84.7760294 161.397778,84.8342647 161.441481,84.8633824 C161.485185,84.8925 161.572593,84.9216176 161.73284,84.9361765 L162.169877,84.9944118 L162.169877,85.3147059 C161.878519,85.2855882 161.543457,85.2710294 161.179259,85.2710294 C160.727654,85.2710294 160.348889,85.2855882 160.013827,85.3147059 L160.013827,84.9944118 L160.159506,84.9944118 C160.378025,84.9944118 160.509136,84.9652941 160.581975,84.9216176 C160.640247,84.8779412 160.713086,84.7760294 160.785926,84.6158824 C161.004444,84.1354412 161.222963,83.6113235 161.456049,83.0580882 L162.723457,79.9279412 C163.058519,79.0980882 163.291605,78.5011765 163.422716,78.1226471 L163.74321,78.1226471 L166.074074,84.0335294 C166.234321,84.4411765 166.336296,84.6741176 166.394568,84.7614706 C166.45284,84.8488235 166.511111,84.9070588 166.569383,84.9361765 C166.642222,84.9798529 166.787901,84.9944118 167.020988,85.0089706 L167.020988,85.3292647 C166.613086,85.3001471 166.234321,85.2855882 165.870123,85.2855882 C165.535062,85.2855882 165.083457,85.3001471 164.515309,85.3292647 L164.515309,85.0089706 L164.966914,84.9798529 C165.12716,84.9652941 165.229136,84.9507353 165.258272,84.9216176 C165.301975,84.8925 165.331111,84.8342647 165.331111,84.7760294 C165.331111,84.7177941 165.287407,84.5576471 165.2,84.3101471 L164.660988,82.8979412 Z M162.155309,82.4902941 L164.486173,82.4902941 L163.320741,79.4620588 L162.155309,82.4902941 Z M168.696296,79.3019118 L168.696296,82.7669118 C168.696296,83.5530882 168.710864,84.1063235 168.74,84.4266176 C168.754568,84.6595588 168.798272,84.8051471 168.841975,84.8633824 C168.900247,84.9216176 169.045926,84.9507353 169.279012,84.9798529 L169.57037,85.0089706 L169.57037,85.3292647 C169.235309,85.3001471 168.929383,85.2855882 168.66716,85.2855882 C168.477778,85.2855882 168.055309,85.3001471 167.370617,85.3292647 L167.370617,85.0089706 L167.705679,85.0089706 C167.90963,85.0089706 168.040741,84.9798529 168.099012,84.9216176 C168.157284,84.8633824 168.200988,84.7469118 168.215556,84.5722059 C168.244691,84.2082353 168.259259,83.6986765 168.259259,83.0726471 L168.259259,80.5685294 C168.259259,80.1026471 168.259259,79.6367647 168.244691,79.1854412 C168.244691,78.9961765 168.215556,78.8505882 168.171852,78.7923529 C168.128148,78.7195588 168.069877,78.6613235 167.997037,78.6030882 C167.924198,78.5448529 167.807654,78.5157353 167.661975,78.5157353 L167.370617,78.5157353 L167.370617,78.1954412 C167.763951,78.2245588 168.055309,78.2245588 168.273827,78.2245588 C168.492346,78.2245588 168.74,78.21 169.002222,78.1954412 C169.308148,78.6030882 169.599506,78.9961765 169.861728,79.3747059 C170.123951,79.7532353 170.415309,80.1463235 170.706667,80.5394118 L172.28,82.6504412 C172.848148,83.4075 173.256049,83.9316176 173.518272,84.2227941 L173.518272,80.9907353 C173.518272,79.6367647 173.503704,78.9088235 173.46,78.7777941 C173.416296,78.6467647 173.241481,78.5739706 172.920988,78.5448529 L172.571358,78.5157353 L172.571358,78.1954412 C173.066667,78.2245588 173.445432,78.2245588 173.722222,78.2245588 C174.01358,78.2245588 174.377778,78.21 174.829383,78.1954412 L174.829383,78.5157353 L174.479753,78.5157353 C174.188395,78.5157353 174.028148,78.6176471 173.984444,78.8214706 C173.955309,78.9525 173.940741,79.695 173.940741,81.0198529 L173.940741,83.2910294 C173.940741,83.9025 173.969877,84.6304412 174.01358,85.4748529 C173.591111,85.4020588 173.358025,85.3583824 173.285185,85.3147059 C173.212346,85.2855882 173.154074,85.2273529 173.095802,85.1545588 C172.746173,84.7469118 172.396543,84.2810294 172.017778,83.7860294 L168.696296,79.3019118 Z M179.884444,82.8979412 L177.218519,82.8979412 L176.912593,83.7132353 C176.708642,84.2519118 176.606667,84.5722059 176.606667,84.7032353 C176.606667,84.7760294 176.621235,84.8342647 176.664938,84.8633824 C176.708642,84.8925 176.796049,84.9216176 176.956296,84.9361765 L177.393333,84.9944118 L177.393333,85.3147059 C177.101975,85.2855882 176.766914,85.2710294 176.388148,85.2710294 C175.951111,85.2710294 175.557778,85.2855882 175.222716,85.3147059 L175.222716,84.9944118 L175.368395,84.9944118 C175.586914,84.9944118 175.718025,84.9652941 175.790864,84.9216176 C175.849136,84.8779412 175.921975,84.7760294 175.994815,84.6158824 C176.213333,84.1354412 176.431852,83.6113235 176.664938,83.0580882 L177.932346,79.9279412 C178.267407,79.0980882 178.500494,78.5011765 178.631605,78.1226471 L178.952099,78.1226471 L181.282963,84.0335294 C181.44321,84.4411765 181.545185,84.6741176 181.603457,84.7614706 C181.661728,84.8488235 181.72,84.9070588 181.778272,84.9361765 C181.851111,84.9798529 181.99679,84.9944118 182.229877,85.0089706 L182.229877,85.3292647 C181.836543,85.3001471 181.44321,85.2855882 181.079012,85.2855882 C180.743951,85.2855882 180.292346,85.3001471 179.724198,85.3292647 L179.724198,85.0089706 L180.175802,84.9798529 C180.336049,84.9652941 180.438025,84.9507353 180.46716,84.9216176 C180.510864,84.8925 180.54,84.8342647 180.54,84.7760294 C180.54,84.7177941 180.496296,84.5576471 180.408889,84.3101471 L179.884444,82.8979412 Z M177.378765,82.4902941 L179.70963,82.4902941 L178.544198,79.4620588 L177.378765,82.4902941 Z M189.003951,82.9416176 C188.960247,83.2182353 188.931111,83.5094118 188.931111,83.8005882 C188.931111,84.1063235 188.960247,84.4557353 189.003951,84.8342647 C188.596049,85.0089706 188.129877,85.1545588 187.62,85.2564706 C187.110123,85.3583824 186.614815,85.4166176 186.134074,85.4166176 C185.405679,85.4166176 184.764691,85.2564706 184.225679,84.9507353 C183.672099,84.645 183.24963,84.2082353 182.958272,83.655 C182.666914,83.1017647 182.506667,82.4757353 182.506667,81.7769118 C182.506667,81.0489706 182.666914,80.4083824 182.987407,79.8405882 C183.307901,79.2727941 183.744938,78.8360294 184.313086,78.5302941 C184.881235,78.21 185.595062,78.0644118 186.469136,78.0644118 C186.818765,78.0644118 187.153827,78.0935294 187.445185,78.1372059 C187.751111,78.1808824 188.129877,78.2827941 188.610617,78.4429412 L189.003951,78.5594118 C188.916543,78.9088235 188.858272,79.4038235 188.8,80.0444118 L188.508642,80.0444118 L188.508642,79.7095588 C188.508642,79.3747059 188.479506,79.1854412 188.435802,79.1272059 C188.348395,79.0252941 188.100741,78.8797059 187.707407,78.7341176 C187.314074,78.5739706 186.862469,78.5011765 186.352593,78.5011765 C185.449383,78.5011765 184.750123,78.7632353 184.269383,79.3019118 C183.744938,79.8842647 183.482716,80.6413235 183.482716,81.5876471 C183.482716,82.5048529 183.715802,83.2619118 184.196543,83.8879412 C184.750123,84.6304412 185.507654,84.9944118 186.469136,84.9944118 C186.964444,84.9944118 187.503457,84.8779412 188.086173,84.6304412 C188.100741,84.3538235 188.115309,84.0480882 188.115309,83.7277941 C188.115309,83.3201471 188.115309,83.0726471 188.100741,83.0144118 C188.086173,82.9561765 188.071605,82.9125 188.042469,82.8979412 C188.013333,82.8833824 187.853086,82.8542647 187.561728,82.8251471 L187.022716,82.7814706 L187.022716,82.4611765 C187.721975,82.4902941 188.24642,82.5048529 188.596049,82.5048529 C188.887407,82.5048529 189.14963,82.4902941 189.35358,82.4611765 L189.35358,82.7086765 L189.003951,82.9416176 Z M191.71358,81.8933824 L191.71358,83.1308824 L191.71358,83.8442647 C191.71358,84.2810294 191.71358,84.6158824 191.728148,84.8197059 C192.179753,84.8633824 192.660494,84.8779412 193.17037,84.8779412 C193.52,84.8779412 193.79679,84.8633824 194.044444,84.8342647 C194.190123,84.8197059 194.35037,84.7760294 194.525185,84.7032353 C194.598025,84.4120588 194.685432,84.0335294 194.758272,83.5967647 L195.064198,83.5967647 C194.97679,84.3247059 194.947654,84.8197059 194.947654,85.0672059 L194.962222,85.3001471 C194.612593,85.3438235 194.262963,85.3583824 193.913333,85.3583824 L193.184938,85.3438235 C192.383704,85.3147059 191.800988,85.3001471 191.422222,85.3001471 C191.058025,85.3001471 190.577284,85.3147059 189.98,85.3438235 L189.98,85.0235294 L190.125679,85.0235294 C190.387901,85.0235294 190.562716,84.9944118 190.635556,84.9361765 C190.708395,84.8779412 190.752099,84.7469118 190.781235,84.5285294 C190.81037,84.3247059 190.81037,83.8588235 190.81037,83.1308824 L190.81037,80.3792647 C190.81037,79.9279412 190.795802,79.5494118 190.781235,79.2727941 C190.766667,78.9816176 190.737531,78.8069118 190.722963,78.7632353 C190.693827,78.705 190.664691,78.6613235 190.620988,78.6322059 C190.577284,78.6030882 190.446173,78.5739706 190.227654,78.5594118 L189.878025,78.5157353 L189.878025,78.1954412 L190.373333,78.1954412 L190.868642,78.21 C191.145432,78.2245588 191.349383,78.2245588 191.495062,78.2245588 L193.272346,78.1954412 L194.117284,78.1954412 C194.408642,78.1954412 194.685432,78.21 194.991358,78.2391176 C194.874815,78.6322059 194.816543,79.1417647 194.801975,79.7823529 L194.481481,79.7823529 C194.481481,79.4183824 194.466914,79.1126471 194.42321,78.8651471 C194.059012,78.7195588 193.621975,78.6467647 193.082963,78.6467647 C192.660494,78.6467647 192.223457,78.6613235 191.757284,78.705 C191.757284,79.0252941 191.757284,79.3310294 191.742716,79.6513235 L191.728148,80.4229412 L191.728148,81.4420588 C192.034074,81.4566176 192.296296,81.4711765 192.543951,81.4711765 C193.272346,81.4711765 193.694815,81.4420588 193.782222,81.3838235 C193.884198,81.3255882 193.927901,81.1508824 193.927901,80.8742647 L193.927901,80.5102941 L194.233827,80.5102941 C194.219259,81.0198529 194.204691,81.4129412 194.204691,81.7186765 C194.204691,82.0389706 194.219259,82.4175 194.233827,82.8397059 L193.927901,82.8397059 L193.927901,82.5485294 C193.927901,82.2282353 193.86963,82.0389706 193.753086,81.9661765 C193.636543,81.8933824 193.228642,81.8642647 192.529383,81.8642647 C192.26716,81.8642647 191.99037,81.8788235 191.71358,81.8933824 M202.391852,79.2436765 L201.022469,82.3447059 C200.512593,83.5094118 200.090123,84.5285294 199.755062,85.4020588 L199.565679,85.4020588 C199.449136,85.0963235 199.128642,84.3392647 198.58963,83.1017647 L196.928889,79.3747059 L196.928889,83.2619118 C196.928889,84.1645588 196.958025,84.6741176 197.030864,84.8051471 C197.089136,84.9216176 197.307654,84.9944118 197.642716,84.9944118 L197.817531,84.9944118 L197.817531,85.3147059 C197.395062,85.2855882 197.045432,85.2710294 196.768642,85.2710294 C196.579259,85.2710294 196.185926,85.2855882 195.60321,85.3147059 L195.60321,84.9944118 L195.909136,84.9944118 C196.113086,84.9944118 196.244198,84.9652941 196.317037,84.8925 C196.389877,84.8342647 196.419012,84.7177941 196.43358,84.5430882 C196.477284,84.0772059 196.491852,83.5676471 196.491852,83.0289706 L196.491852,80.19 C196.491852,79.5057353 196.477284,79.0544118 196.448148,78.8360294 C196.43358,78.7195588 196.389877,78.6322059 196.317037,78.5739706 C196.244198,78.5157353 196.083951,78.4866176 195.850864,78.4866176 L195.60321,78.4866176 L195.60321,78.1663235 C196.142222,78.1954412 196.477284,78.1954412 196.608395,78.1954412 C196.78321,78.1954412 197.030864,78.1808824 197.351358,78.1663235 C197.730123,79.0689706 198.152593,80.0589706 198.647901,81.1508824 L199.857037,83.8733824 L200.978765,81.3547059 C201.372099,80.4666176 201.823704,79.4183824 202.33358,78.1808824 C202.712346,78.21 202.989136,78.21 203.149383,78.21 C203.324198,78.21 203.659259,78.1954412 204.14,78.1808824 L204.14,78.5011765 L203.834074,78.5011765 C203.571852,78.5011765 203.397037,78.5448529 203.338765,78.6467647 C203.280494,78.7486765 203.251358,79.1126471 203.251358,79.7532353 L203.251358,83.4220588 C203.251358,84.2373529 203.280494,84.7032353 203.353333,84.8342647 C203.411605,84.9507353 203.58642,85.0089706 203.877778,85.0089706 L204.14,85.0089706 L204.14,85.3292647 C203.717531,85.3001471 203.30963,85.2855882 202.916296,85.2855882 C202.479259,85.2855882 202.027654,85.3001471 201.561481,85.3292647 L201.561481,85.0089706 L201.867407,85.0089706 C202.115062,85.0089706 202.260741,84.9507353 202.304444,84.8342647 C202.362716,84.7177941 202.377284,84.2227941 202.377284,83.3492647 L202.377284,79.2436765 L202.391852,79.2436765 Z M206.441728,81.8933824 L206.441728,83.1308824 L206.441728,83.8442647 C206.441728,84.2810294 206.441728,84.6158824 206.456296,84.8197059 C206.907901,84.8633824 207.388642,84.8779412 207.898519,84.8779412 C208.248148,84.8779412 208.524938,84.8633824 208.772593,84.8342647 C208.918272,84.8197059 209.078519,84.7760294 209.253333,84.7032353 C209.326173,84.4120588 209.41358,84.0335294 209.48642,83.5967647 L209.792346,83.5967647 C209.704938,84.3247059 209.661235,84.8197059 209.661235,85.0672059 L209.675802,85.3001471 C209.326173,85.3438235 208.976543,85.3583824 208.626914,85.3583824 L207.898519,85.3438235 C207.097284,85.3147059 206.514568,85.3001471 206.135802,85.3001471 C205.771605,85.3001471 205.290864,85.3147059 204.69358,85.3438235 L204.69358,85.0235294 L204.839259,85.0235294 C205.101481,85.0235294 205.276296,84.9944118 205.349136,84.9361765 C205.421975,84.8779412 205.465679,84.7469118 205.494815,84.5285294 C205.523951,84.3247059 205.523951,83.8588235 205.523951,83.1308824 L205.523951,80.3792647 C205.523951,79.9279412 205.509383,79.5494118 205.494815,79.2727941 C205.480247,78.9816176 205.451111,78.8069118 205.436543,78.7632353 C205.407407,78.705 205.378272,78.6613235 205.334568,78.6322059 C205.290864,78.6030882 205.159753,78.5739706 204.941235,78.5594118 L204.591605,78.5157353 L204.591605,78.1954412 L205.086914,78.1954412 L205.582222,78.21 C205.859012,78.2245588 206.062963,78.2245588 206.208642,78.2245588 L207.985926,78.1954412 L208.830864,78.1954412 C209.122222,78.1954412 209.41358,78.21 209.704938,78.2391176 C209.588395,78.6322059 209.530123,79.1417647 209.515556,79.7823529 L209.195062,79.7823529 C209.195062,79.4183824 209.180494,79.1126471 209.151358,78.8651471 C208.78716,78.7195588 208.335556,78.6467647 207.811111,78.6467647 C207.388642,78.6467647 206.951605,78.6613235 206.485432,78.705 C206.485432,79.0252941 206.485432,79.3310294 206.470864,79.6513235 L206.456296,80.4229412 L206.456296,81.4420588 C206.762222,81.4566176 207.024444,81.4711765 207.272099,81.4711765 C208.000494,81.4711765 208.422963,81.4420588 208.51037,81.3838235 C208.612346,81.3255882 208.656049,81.1508824 208.656049,80.8742647 L208.656049,80.5102941 L208.961975,80.5102941 C208.947407,81.0198529 208.93284,81.4129412 208.93284,81.7186765 C208.93284,82.0389706 208.947407,82.4175 208.961975,82.8397059 L208.656049,82.8397059 L208.656049,82.5485294 C208.656049,82.2282353 208.597778,82.0389706 208.481235,81.9661765 C208.364691,81.8933824 207.95679,81.8642647 207.257531,81.8642647 C206.995309,81.8642647 206.733086,81.8788235 206.441728,81.8933824 M211.657037,79.3019118 L211.657037,82.7669118 C211.657037,83.5530882 211.671605,84.1063235 211.700741,84.4266176 C211.729877,84.6595588 211.759012,84.8051471 211.802716,84.8633824 C211.860988,84.9216176 212.006667,84.9507353 212.239753,84.9798529 L212.531111,85.0089706 L212.531111,85.3292647 C212.196049,85.3001471 211.890123,85.2855882 211.627901,85.2855882 C211.438519,85.2855882 211.016049,85.3001471 210.331358,85.3292647 L210.331358,85.0089706 L210.66642,85.0089706 C210.87037,85.0089706 211.001481,84.9798529 211.059753,84.9216176 C211.118025,84.8633824 211.161728,84.7469118 211.176296,84.5722059 C211.205432,84.2082353 211.234568,83.6986765 211.234568,83.0726471 L211.234568,80.5685294 C211.234568,80.1026471 211.234568,79.6367647 211.22,79.1854412 C211.22,78.9961765 211.190864,78.8505882 211.14716,78.7923529 C211.103457,78.7195588 211.045185,78.6613235 210.957778,78.6030882 C210.884938,78.5448529 210.768395,78.5157353 210.622716,78.5157353 L210.331358,78.5157353 L210.331358,78.1954412 C210.724691,78.2245588 211.016049,78.2245588 211.234568,78.2245588 C211.453086,78.2245588 211.700741,78.21 211.962963,78.1954412 C212.268889,78.6030882 212.560247,78.9961765 212.822469,79.3747059 C213.084691,79.7532353 213.376049,80.1463235 213.667407,80.5394118 L215.240741,82.6504412 C215.808889,83.4075 216.21679,83.9316176 216.479012,84.2227941 L216.479012,80.9907353 C216.479012,79.6367647 216.449877,78.9088235 216.406173,78.7777941 C216.362469,78.6467647 216.187654,78.5739706 215.86716,78.5448529 L215.517531,78.5157353 L215.517531,78.1954412 C216.01284,78.2245588 216.391605,78.2245588 216.668395,78.2245588 C216.959753,78.2245588 217.323951,78.21 217.775556,78.1954412 L217.775556,78.5157353 L217.425926,78.5157353 C217.134568,78.5157353 216.974321,78.6176471 216.930617,78.8214706 C216.901481,78.9525 216.886914,79.695 216.886914,81.0198529 L216.886914,83.2910294 C216.886914,83.9025 216.916049,84.6304412 216.959753,85.4748529 C216.537284,85.4020588 216.28963,85.3583824 216.231358,85.3147059 C216.158519,85.2855882 216.100247,85.2273529 216.041975,85.1545588 C215.692346,84.7469118 215.342716,84.2810294 214.963951,83.7860294 L211.657037,79.3019118 Z M221.388395,78.6176471 C221.359259,79.1272059 221.330123,79.6513235 221.330123,80.2045588 L221.330123,83.0726471 C221.330123,84.1354412 221.359259,84.7323529 221.402963,84.8342647 C221.446667,84.9361765 221.621481,84.9944118 221.927407,84.9944118 L222.277037,84.9944118 L222.277037,85.3147059 C221.723457,85.2855882 221.271852,85.2710294 220.893086,85.2710294 C220.514321,85.2710294 220.048148,85.2855882 219.523704,85.3147059 L219.523704,84.9944118 L219.917037,84.9944118 C220.120988,84.9944118 220.252099,84.9652941 220.31037,84.9070588 C220.368642,84.8488235 220.412346,84.7323529 220.426914,84.5576471 C220.456049,84.1645588 220.470617,83.655 220.470617,83.0435294 L220.470617,80.1754412 C220.470617,79.6076471 220.456049,79.0980882 220.441481,78.6176471 L219.975309,78.6176471 C219.217778,78.6176471 218.795309,78.6322059 218.722469,78.6758824 C218.64963,78.7195588 218.591358,78.8651471 218.57679,79.1272059 L218.503951,79.7969118 L218.212593,79.7969118 L218.22716,79.2 C218.22716,78.9525 218.212593,78.6176471 218.168889,78.1663235 C219.82963,78.1954412 220.805679,78.1954412 221.097037,78.1954412 L223.660988,78.1663235 C223.602716,78.7341176 223.57358,79.2727941 223.559012,79.7969118 L223.267654,79.7969118 L223.223951,79.1417647 C223.209383,78.9088235 223.180247,78.7777941 223.151111,78.7341176 C223.121975,78.6904412 223.049136,78.6613235 222.918025,78.6613235 C222.582963,78.6322059 222.18963,78.6176471 221.76716,78.6176471 L221.388395,78.6176471 L221.388395,78.6176471 Z" id="Shape" fill="#FFFFFF" fill-rule="nonzero"></path><path d="M102.324938,85.0817647 C102.368642,84.5576471 102.397778,83.655 102.397778,82.3592647 L102.397778,80.9033824 C102.397778,80.3064706 102.38321,79.7969118 102.339506,79.3601471 C102.324938,79.1126471 102.295802,78.9670588 102.266667,78.9233824 C102.237531,78.8797059 102.120988,78.8505882 101.917037,78.8069118 L101.567407,78.7486765 L101.567407,78.4283824 C102.03358,78.4429412 102.354074,78.4575 102.514321,78.4575 L103.665185,78.4429412 L104.612099,78.4283824 C104.990864,78.4138235 105.36963,78.4575 105.777531,78.5594118 C106.170864,78.6467647 106.535062,78.8360294 106.855556,79.1272059 C107.176049,79.4038235 107.423704,79.7677941 107.598519,80.19 C107.773333,80.6122059 107.846173,81.1072059 107.846173,81.675 C107.846173,82.8105882 107.525679,83.7423529 106.870123,84.4848529 C106.214568,85.2273529 105.36963,85.5913235 104.320741,85.5913235 L103.796296,85.5767647 C103.28642,85.5476471 102.951358,85.5476471 102.820247,85.5476471 C102.58716,85.5476471 102.295802,85.5622059 101.931605,85.6058824 L101.931605,85.3729412 L102.324938,85.0817647 Z M103.242716,85.0672059 C103.636049,85.14 103.971111,85.1691176 104.262469,85.1691176 C105.063704,85.1691176 105.690123,84.9216176 106.12716,84.4411765 C106.666173,83.8588235 106.928395,82.9998529 106.928395,81.8788235 C106.928395,80.9033824 106.709877,80.1608824 106.258272,79.6513235 C105.806667,79.1417647 105.165679,78.8797059 104.306173,78.8797059 C104.000247,78.8797059 103.650617,78.9088235 103.242716,78.9816176 C103.21358,79.3019118 103.199012,79.6658824 103.199012,80.0735294 L103.199012,83.3638235 C103.199012,83.9607353 103.21358,84.5285294 103.242716,85.0672059 M110.118765,82.17 L110.118765,83.3929412 L110.118765,84.1063235 C110.118765,84.5430882 110.118765,84.8779412 110.133333,85.0817647 C110.555802,85.1254412 111.007407,85.14 111.47358,85.14 C111.794074,85.14 112.056296,85.1254412 112.274815,85.0817647 C112.420494,85.0672059 112.566173,85.0235294 112.72642,84.9507353 C112.799259,84.6595588 112.872099,84.2955882 112.944938,83.8442647 L113.236296,83.8442647 C113.163457,84.5722059 113.119753,85.0672059 113.119753,85.3147059 L113.134321,85.5476471 C112.799259,85.5913235 112.478765,85.6058824 112.158272,85.6058824 L111.488148,85.5913235 C110.745185,85.5622059 110.191605,85.5476471 109.856543,85.5476471 C109.521481,85.5476471 109.069877,85.5622059 108.516296,85.5913235 L108.516296,85.2710294 L108.647407,85.2710294 C108.895062,85.2710294 109.055309,85.2419118 109.11358,85.1836765 C109.171852,85.1254412 109.215556,84.9944118 109.244691,84.7760294 C109.259259,84.5722059 109.273827,84.1063235 109.273827,83.3783824 L109.273827,80.6267647 C109.273827,80.1754412 109.259259,79.7969118 109.244691,79.5202941 C109.230123,79.2291176 109.200988,79.0544118 109.18642,79.0107353 C109.171852,78.9525 109.128148,78.9088235 109.099012,78.8797059 C109.055309,78.8505882 108.938765,78.8214706 108.734815,78.8069118 L108.399753,78.7632353 L108.399753,78.4575 L108.865926,78.4575 L109.317531,78.4720588 C109.579753,78.4866176 109.769136,78.4866176 109.900247,78.4866176 L111.54642,78.4575 L112.333086,78.4575 C112.595309,78.4575 112.872099,78.4720588 113.134321,78.5011765 C113.032346,78.8942647 112.959506,79.4038235 112.959506,80.0444118 L112.668148,80.0444118 C112.668148,79.6804412 112.65358,79.3747059 112.624444,79.1272059 C112.289383,78.9816176 111.866914,78.9088235 111.386173,78.9088235 C110.99284,78.9088235 110.584938,78.9233824 110.147901,78.9670588 C110.147901,79.2873529 110.147901,79.5930882 110.133333,79.9133824 L110.118765,80.685 L110.118765,81.7041176 C110.395556,81.7186765 110.657778,81.7332353 110.876296,81.7332353 C111.560988,81.7332353 111.939753,81.7041176 112.02716,81.6458824 C112.114568,81.5876471 112.158272,81.4129412 112.158272,81.1363235 L112.158272,80.8160294 L112.44963,80.8160294 C112.435062,81.3255882 112.420494,81.7186765 112.420494,82.0244118 C112.420494,82.3447059 112.435062,82.7086765 112.44963,83.1454412 L112.158272,83.1454412 L112.158272,82.8542647 C112.158272,82.5339706 112.1,82.3301471 111.998025,82.2719118 C111.896049,82.1991176 111.517284,82.17 110.861728,82.17 C110.628642,82.1408824 110.380988,82.1554412 110.118765,82.17 M117.65037,78.7777941 C117.577531,79.1272059 117.533827,79.5930882 117.519259,80.1608824 L117.227901,80.1608824 L117.227901,79.7532353 C117.227901,79.4911765 117.198765,79.3164706 117.140494,79.2291176 C117.082222,79.1272059 116.921975,79.0398529 116.674321,78.9233824 C116.426667,78.8214706 116.149877,78.7632353 115.873086,78.7632353 C115.421481,78.7632353 115.057284,78.8942647 114.795062,79.1708824 C114.53284,79.4475 114.401728,79.7969118 114.401728,80.2191176 C114.401728,80.4811765 114.46,80.7141176 114.561975,80.9033824 C114.663951,81.0926471 114.80963,81.2382353 114.999012,81.3255882 C115.173827,81.4129412 115.56716,81.4857353 116.149877,81.5439706 C116.74716,81.6167647 117.140494,81.7041176 117.344444,81.8060294 C117.548395,81.9225 117.72321,82.0972059 117.839753,82.3447059 C117.956296,82.5922059 118.029136,82.8833824 118.029136,83.2182353 C118.029136,83.8879412 117.781481,84.4702941 117.315309,84.9507353 C116.834568,85.4311765 116.19358,85.6786765 115.392346,85.6786765 C115.115556,85.6786765 114.838765,85.6495588 114.561975,85.5767647 C114.285185,85.5185294 113.993827,85.4166176 113.717037,85.2855882 C113.760741,84.8779412 113.789877,84.3683824 113.789877,83.7423529 L114.081235,83.7423529 L114.081235,83.9898529 C114.081235,84.3101471 114.095802,84.5139706 114.124938,84.5867647 C114.154074,84.6595588 114.226914,84.7469118 114.328889,84.8342647 C114.489136,84.9652941 114.678519,85.0672059 114.897037,85.14 C115.115556,85.2127941 115.348642,85.2419118 115.596296,85.2419118 C116.135309,85.2419118 116.557778,85.0963235 116.849136,84.7905882 C117.140494,84.4994118 117.286173,84.1208824 117.286173,83.655 C117.286173,83.3929412 117.227901,83.16 117.140494,82.9707353 C117.038519,82.7814706 116.89284,82.6504412 116.718025,82.5630882 C116.54321,82.4757353 116.208148,82.4029412 115.71284,82.3592647 C115.071852,82.3010294 114.634815,82.2136765 114.401728,82.0826471 C114.168642,81.9661765 113.993827,81.7769118 113.862716,81.5148529 C113.731605,81.2527941 113.658765,80.9325 113.658765,80.5539706 C113.658765,79.8988235 113.862716,79.3601471 114.256049,78.9525 C114.663951,78.5448529 115.217531,78.3264706 115.931358,78.3264706 C116.222716,78.3264706 116.499506,78.3701471 116.790864,78.4283824 C117.082222,78.5157353 117.37358,78.6322059 117.65037,78.7777941 M118.407901,85.2710294 L118.670123,85.2710294 C118.932346,85.2710294 119.092593,85.1982353 119.150864,85.0380882 C119.209136,84.8925 119.238272,84.1645588 119.238272,82.8688235 L119.238272,81.1654412 C119.238272,79.8260294 119.209136,79.0835294 119.165432,78.9525 C119.121728,78.8214706 118.990617,78.7486765 118.757531,78.7486765 L118.407901,78.7486765 L118.407901,78.4283824 C118.874074,78.4575 119.354815,78.4575 119.820988,78.4575 C120.199753,78.4575 120.563951,78.4429412 120.869877,78.4283824 L120.869877,78.7486765 L120.534815,78.7486765 C120.330864,78.7486765 120.199753,78.7777941 120.156049,78.8360294 C120.112346,78.8942647 120.068642,79.0398529 120.068642,79.2727941 C120.054074,79.6367647 120.054074,80.2627941 120.054074,81.18 L120.054074,82.9125 C120.054074,84.2227941 120.08321,84.9361765 120.126914,85.0672059 C120.170617,85.1982353 120.330864,85.2710294 120.593086,85.2710294 L120.869877,85.2710294 L120.869877,85.5913235 C120.520247,85.5622059 120.141481,85.5476471 119.719012,85.5476471 C119.238272,85.5476471 118.801235,85.5622059 118.407901,85.5913235 L118.407901,85.2710294 L118.407901,85.2710294 Z M127.250617,83.2182353 C127.206914,83.4948529 127.177778,83.7860294 127.177778,84.0772059 C127.177778,84.3829412 127.192346,84.7323529 127.250617,85.1108824 C126.871852,85.2855882 126.434815,85.4311765 125.954074,85.5330882 C125.473333,85.635 125.021728,85.6932353 124.584691,85.6932353 C123.914568,85.6932353 123.317284,85.5330882 122.807407,85.2273529 C122.297531,84.9216176 121.904198,84.4848529 121.627407,83.9316176 C121.350617,83.3783824 121.219506,82.7523529 121.219506,82.0535294 C121.219506,81.3255882 121.365185,80.685 121.656543,80.1172059 C121.947901,79.5494118 122.355802,79.1126471 122.894815,78.8069118 C123.419259,78.5011765 124.089383,78.3410294 124.890617,78.3410294 C125.225679,78.3410294 125.517037,78.3701471 125.793827,78.4138235 C126.070617,78.4575 126.434815,78.5594118 126.871852,78.7195588 L127.236049,78.8360294 C127.16321,79.1854412 127.09037,79.6804412 127.046667,80.3210294 L126.784444,80.3210294 L126.784444,79.9861765 C126.784444,79.6513235 126.755309,79.4620588 126.711605,79.4038235 C126.624198,79.3019118 126.391111,79.1563235 126.026914,78.9961765 C125.662716,78.8360294 125.240247,78.7632353 124.759506,78.7632353 C123.914568,78.7632353 123.27358,79.0252941 122.821975,79.5494118 C122.341235,80.1317647 122.09358,80.8888235 122.09358,81.8351471 C122.09358,82.7523529 122.312099,83.5094118 122.749136,84.1354412 C123.259012,84.8779412 123.97284,85.2419118 124.861481,85.2419118 C125.327654,85.2419118 125.822963,85.1254412 126.361975,84.8925 C126.376543,84.6158824 126.391111,84.3101471 126.391111,83.9898529 C126.391111,83.5822059 126.391111,83.3347059 126.376543,83.2764706 C126.361975,83.2182353 126.347407,83.1745588 126.318272,83.16 C126.289136,83.1454412 126.143457,83.1163235 125.866667,83.0872059 L125.35679,83.0435294 L125.35679,82.7232353 C126.012346,82.7523529 126.493086,82.7669118 126.81358,82.7669118 C127.09037,82.7669118 127.323457,82.7523529 127.527407,82.7232353 L127.527407,82.9852941 L127.250617,83.2182353 Z M129.231852,79.5785294 L129.231852,83.0435294 C129.231852,83.8297059 129.24642,84.3829412 129.275556,84.7032353 C129.290123,84.9361765 129.333827,85.0817647 129.377531,85.14 C129.421235,85.1982353 129.566914,85.2273529 129.785432,85.2564706 L130.062222,85.2855882 L130.062222,85.6058824 C129.756296,85.5767647 129.464938,85.5622059 129.217284,85.5622059 C129.042469,85.5622059 128.649136,85.5767647 128.022716,85.6058824 L128.022716,85.2855882 L128.328642,85.2855882 C128.518025,85.2855882 128.634568,85.2564706 128.69284,85.1982353 C128.751111,85.14 128.780247,85.0235294 128.794815,84.8488235 C128.823951,84.4848529 128.838519,83.9752941 128.838519,83.3492647 L128.838519,80.8597059 C128.838519,80.3938235 128.838519,79.9279412 128.823951,79.4766176 C128.823951,79.2727941 128.794815,79.1417647 128.765679,79.0689706 C128.736543,78.9961765 128.663704,78.9379412 128.590864,78.8797059 C128.518025,78.8214706 128.416049,78.7923529 128.27037,78.7923529 L128.008148,78.7923529 L128.008148,78.4720588 C128.372346,78.5011765 128.649136,78.5011765 128.838519,78.5011765 C129.042469,78.5011765 129.275556,78.4866176 129.52321,78.4720588 C129.8,78.8797059 130.07679,79.2727941 130.324444,79.6513235 C130.572099,80.0298529 130.834321,80.4229412 131.111111,80.8160294 L132.582469,82.9270588 C133.106914,83.6841176 133.485679,84.2082353 133.733333,84.4994118 L133.733333,81.2382353 C133.733333,79.8842647 133.718765,79.1563235 133.675062,79.0252941 C133.631358,78.9088235 133.471111,78.8214706 133.179753,78.7923529 L132.859259,78.7486765 L132.859259,78.4283824 C133.325432,78.4575 133.675062,78.4575 133.937284,78.4575 C134.199506,78.4575 134.549136,78.4429412 134.971605,78.4283824 L134.971605,78.7486765 L134.636543,78.7486765 C134.374321,78.7486765 134.214074,78.8505882 134.17037,79.0544118 C134.141235,79.2 134.126667,79.9279412 134.126667,81.2527941 L134.126667,83.5239706 C134.126667,84.1354412 134.155802,84.8633824 134.199506,85.7077941 C133.806173,85.635 133.587654,85.5913235 133.514815,85.5476471 C133.456543,85.5185294 133.398272,85.4602941 133.34,85.3875 C133.019506,84.9798529 132.684444,84.5139706 132.334815,84.0189706 L129.231852,79.5785294 Z" id="Shape" fill="#FFFFFF" fill-rule="nonzero"></path><path d="M6.96345679,80.3938235 L6.91975309,79.5057353 C6.64296296,79.3019118 6.33703704,79.1563235 6.03111111,79.0689706 C5.72518519,78.9670588 5.40469136,78.9233824 5.06962963,78.9233824 C4.21012346,78.9233824 3.5254321,79.2 3.01555556,79.7532353 C2.50567901,80.3064706 2.24345679,81.0344118 2.24345679,81.9661765 C2.24345679,82.6067647 2.3745679,83.1891176 2.63679012,83.6986765 C2.89901235,84.2082353 3.27777778,84.6013235 3.75851852,84.9070588 C4.23925926,85.1982353 4.7491358,85.3438235 5.28814815,85.3438235 C5.71061728,85.3438235 6.13308642,85.3001471 6.54098765,85.1836765 C6.84691358,85.1108824 7.16740741,84.9507353 7.47333333,84.7032353 L7.57530864,84.8051471 C7.50246914,84.9652941 7.44419753,85.1108824 7.38592593,85.2710294 C7.0217284,85.4602941 6.64296296,85.6058824 6.26419753,85.7077941 C5.8854321,85.8097059 5.50666667,85.8533824 5.12790123,85.8533824 C4.34123457,85.8533824 3.65654321,85.6932353 3.07382716,85.3729412 C2.47654321,85.0526471 2.02493827,84.6158824 1.70444444,84.0480882 C1.38395062,83.4802941 1.2237037,82.8542647 1.2237037,82.1408824 C1.2237037,81.4420588 1.38395062,80.8014706 1.70444444,80.2482353 C2.02493827,79.695 2.47654321,79.2582353 3.05925926,78.9525 C3.64197531,78.6467647 4.37037037,78.4866176 5.21530864,78.4866176 C5.66691358,78.4866176 6.19135802,78.5594118 6.78864198,78.7195588 C7.08,78.7923529 7.32765432,78.8505882 7.51703704,78.8797059 C7.37135802,79.2436765 7.29851852,79.7386765 7.26938272,80.3938235 L6.96345679,80.3938235 L6.96345679,80.3938235 Z M7.98320988,82.1554412 C7.98320988,81.0489706 8.3182716,80.1608824 8.98839506,79.4911765 C9.65851852,78.8214706 10.5617284,78.4866176 11.6688889,78.4866176 C12.7614815,78.4866176 13.6355556,78.7923529 14.2474074,79.4183824 C14.8738272,80.0444118 15.1797531,80.8742647 15.1797531,81.9079412 C15.1797531,83.0289706 14.8155556,83.9607353 14.1017284,84.7032353 C13.3733333,85.4602941 12.4701235,85.8242647 11.362963,85.8242647 C10.6782716,85.8242647 10.0809877,85.6786765 9.58567901,85.3875 C9.09037037,85.0963235 8.69703704,84.6595588 8.40567901,84.0917647 C8.11432099,83.5239706 7.98320988,82.8833824 7.98320988,82.1554412 M8.94469136,81.7332353 C8.94469136,82.4902941 9.07580247,83.1454412 9.30888889,83.7132353 C9.55654321,84.2664706 9.89160494,84.6886765 10.2995062,84.9798529 C10.7074074,85.2564706 11.1881481,85.4020588 11.7125926,85.4020588 C12.2079012,85.4020588 12.6303704,85.2855882 12.9945679,85.0526471 C13.3587654,84.8197059 13.6501235,84.4557353 13.868642,83.9898529 C14.0871605,83.5239706 14.1891358,82.9416176 14.1891358,82.2719118 C14.1891358,81.5585294 14.0725926,80.9616176 13.8395062,80.4520588 C13.6064198,79.9425 13.2859259,79.5639706 12.8780247,79.3164706 C12.4701235,79.0689706 11.9893827,78.9379412 11.4358025,78.9379412 C10.9259259,78.9379412 10.4888889,79.0544118 10.1246914,79.2727941 C9.76049383,79.4911765 9.4691358,79.8260294 9.26518519,80.2627941 C9.04666667,80.6704412 8.94469136,81.1654412 8.94469136,81.7332353 M22.6093827,79.6658824 L21.1962963,82.7669118 C20.6718519,83.9316176 20.2348148,84.9507353 19.8997531,85.8242647 L19.7103704,85.8242647 C19.5938272,85.5185294 19.2587654,84.7614706 18.7051852,83.5239706 L17.0007407,79.7969118 L17.0007407,83.6841176 C17.0007407,84.5867647 17.0298765,85.0963235 17.102716,85.2273529 C17.1755556,85.3438235 17.3795062,85.4166176 17.7437037,85.4166176 L17.9185185,85.4166176 L17.9185185,85.7369118 C17.4814815,85.7077941 17.117284,85.7077941 16.8404938,85.7077941 C16.6365432,85.7077941 16.2432099,85.7223529 15.6459259,85.7369118 L15.6459259,85.4166176 L15.9518519,85.4166176 C16.1558025,85.4166176 16.3014815,85.3875 16.374321,85.3147059 C16.4471605,85.2564706 16.4908642,85.14 16.5054321,84.9652941 C16.5491358,84.4994118 16.5637037,83.9898529 16.5637037,83.4511765 L16.5637037,80.6122059 C16.5637037,79.9279412 16.5491358,79.4766176 16.52,79.2436765 C16.5054321,79.1272059 16.4617284,79.0398529 16.374321,78.9816176 C16.2869136,78.9233824 16.1266667,78.8942647 15.8935802,78.8942647 L15.6459259,78.8942647 L15.6459259,78.5739706 C16.1995062,78.6030882 16.5491358,78.6030882 16.6802469,78.6030882 C16.8550617,78.6030882 17.117284,78.5885294 17.4523457,78.5739706 C17.8311111,79.4766176 18.282716,80.4666176 18.7780247,81.5585294 L20.0308642,84.2810294 L21.1817284,81.7623529 C21.5896296,80.8742647 22.0558025,79.8260294 22.565679,78.5885294 C22.9590123,78.6176471 23.2358025,78.6176471 23.4106173,78.6176471 C23.6,78.6176471 23.9350617,78.6030882 24.4158025,78.5885294 L24.4158025,78.9088235 L24.1098765,78.9088235 C23.8330864,78.9088235 23.6582716,78.9670588 23.6,79.0544118 C23.5417284,79.1563235 23.5125926,79.5202941 23.5125926,80.1608824 L23.5125926,83.8297059 C23.5125926,84.645 23.5417284,85.1108824 23.6145679,85.2419118 C23.6874074,85.3583824 23.8622222,85.4166176 24.1681481,85.4166176 L24.4449383,85.4166176 L24.4449383,85.7369118 C24.0079012,85.7077941 23.5854321,85.7077941 23.1775309,85.7077941 C22.7259259,85.7077941 22.274321,85.7223529 21.7790123,85.7369118 L21.7790123,85.4166176 L22.0995062,85.4166176 C22.3471605,85.4166176 22.5074074,85.3583824 22.5511111,85.2419118 C22.6093827,85.1254412 22.6239506,84.6304412 22.6239506,83.7569118 L22.6239506,79.6658824 L22.6093827,79.6658824 Z M31.8308642,79.6658824 L30.4177778,82.7669118 C29.8787654,83.9316176 29.4562963,84.9507353 29.1066667,85.8242647 L28.917284,85.8242647 C28.8007407,85.5185294 28.465679,84.7614706 27.9120988,83.5239706 L26.2076543,79.7969118 L26.2076543,83.6841176 C26.2076543,84.5867647 26.2367901,85.0963235 26.3096296,85.2273529 C26.3824691,85.3438235 26.5864198,85.4166176 26.9506173,85.4166176 L27.1254321,85.4166176 L27.1254321,85.7369118 C26.6883951,85.7077941 26.3241975,85.7077941 26.0474074,85.7077941 C25.8434568,85.7077941 25.4501235,85.7223529 24.8528395,85.7369118 L24.8528395,85.4166176 L25.1587654,85.4166176 C25.362716,85.4166176 25.5083951,85.3875 25.5812346,85.3147059 C25.6540741,85.2564706 25.6977778,85.14 25.7123457,84.9652941 C25.7560494,84.4994118 25.7706173,83.9898529 25.7706173,83.4511765 L25.7706173,80.6122059 C25.7706173,79.9279412 25.7560494,79.4766176 25.7269136,79.2436765 C25.7123457,79.1272059 25.668642,79.0398529 25.5812346,78.9816176 C25.4938272,78.9233824 25.3335802,78.8942647 25.1004938,78.8942647 L24.8528395,78.8942647 L24.8528395,78.5739706 C25.4064198,78.6030882 25.7560494,78.6030882 25.8871605,78.6030882 C26.0619753,78.6030882 26.3241975,78.5885294 26.6592593,78.5739706 C27.0380247,79.4766176 27.4896296,80.4666176 27.9849383,81.5585294 L29.2377778,84.2810294 L30.388642,81.7623529 C30.7965432,80.8742647 31.262716,79.8260294 31.7725926,78.5885294 C32.1804938,78.6030882 32.4718519,78.6176471 32.6320988,78.6176471 C32.8214815,78.6176471 33.1565432,78.6030882 33.6518519,78.5885294 L33.6518519,78.9088235 L33.3459259,78.9088235 C33.0691358,78.9088235 32.894321,78.9670588 32.8360494,79.0544118 C32.7777778,79.1563235 32.748642,79.5202941 32.748642,80.1608824 L32.748642,83.8297059 C32.748642,84.645 32.7777778,85.1108824 32.8506173,85.2419118 C32.9088889,85.3583824 33.0982716,85.4166176 33.4041975,85.4166176 L33.6809877,85.4166176 L33.6809877,85.7369118 C33.2439506,85.7077941 32.8214815,85.7077941 32.4135802,85.7077941 C31.9619753,85.7077941 31.5103704,85.7223529 31.0150617,85.7369118 L31.0150617,85.4166176 L31.3355556,85.4166176 C31.5832099,85.4166176 31.7434568,85.3583824 31.7871605,85.2419118 C31.8454321,85.1254412 31.8745679,84.6304412 31.8745679,83.7569118 L31.8745679,79.6658824 L31.8308642,79.6658824 Z M34.0306173,78.8942647 L34.0306173,78.5739706 C34.6861728,78.6030882 35.1523457,78.6030882 35.4437037,78.6030882 C35.7496296,78.6030882 36.2158025,78.5885294 36.8130864,78.5739706 L36.8130864,78.8942647 L36.4634568,78.8942647 C36.1720988,78.8942647 35.982716,78.9525 35.9244444,79.0689706 C35.8661728,79.1854412 35.837037,79.7386765 35.837037,80.6995588 L35.837037,82.665 C35.837037,83.3929412 35.8807407,83.8879412 35.9535802,84.1645588 C36.0264198,84.4411765 36.2158025,84.6886765 36.5362963,84.8779412 C36.8567901,85.0672059 37.2646914,85.1691176 37.7891358,85.1691176 C38.3281481,85.1691176 38.7797531,85.0672059 39.1439506,84.8633824 C39.3916049,84.7177941 39.5809877,84.4994118 39.6975309,84.1936765 C39.8140741,83.8879412 39.8723457,83.3201471 39.8723457,82.4757353 L39.8723457,80.5830882 C39.8723457,79.7095588 39.8432099,79.2 39.7558025,79.0835294 C39.682963,78.9525 39.4790123,78.8942647 39.1439506,78.8942647 L38.8962963,78.8942647 L38.8962963,78.5739706 C39.5518519,78.6030882 39.974321,78.6030882 40.1491358,78.6030882 C40.4404938,78.6030882 40.7901235,78.5885294 41.2271605,78.5739706 L41.2271605,78.8942647 L40.9066667,78.8942647 C40.6590123,78.8942647 40.4987654,78.9670588 40.4259259,79.1126471 C40.3530864,79.2582353 40.3239506,79.7532353 40.3239506,80.6122059 L40.3239506,82.4902941 C40.3239506,83.3492647 40.2802469,83.9316176 40.2074074,84.2373529 C40.12,84.5430882 39.974321,84.8051471 39.7558025,85.0526471 C39.537284,85.3001471 39.2604938,85.4894118 38.8962963,85.6204412 C38.5320988,85.7660294 38.1241975,85.8242647 37.6434568,85.8242647 C37.1481481,85.8242647 36.7111111,85.7660294 36.3323457,85.635 C35.9535802,85.5039706 35.6767901,85.3583824 35.4874074,85.1691176 C35.2980247,84.9798529 35.1669136,84.7614706 35.0795062,84.4994118 C34.9920988,84.2373529 34.9483951,83.7860294 34.9483951,83.1454412 L34.962963,82.1845588 L34.962963,80.6558824 C34.962963,79.7095588 34.9338272,79.1854412 34.8901235,79.0689706 C34.8318519,78.9525 34.6716049,78.8942647 34.3948148,78.8942647 L34.0306173,78.8942647 Z M42.9898765,79.7095588 L42.9898765,83.1745588 C42.9898765,83.9607353 43.0044444,84.5139706 43.0335802,84.8342647 C43.062716,85.0672059 43.0918519,85.2127941 43.1501235,85.2710294 C43.2083951,85.3292647 43.3540741,85.3583824 43.6017284,85.3875 L43.9076543,85.4166176 L43.9076543,85.7369118 C43.5580247,85.7077941 43.2520988,85.7077941 42.9753086,85.7077941 C42.7859259,85.7077941 42.334321,85.7223529 41.6496296,85.7369118 L41.6496296,85.4166176 L41.9992593,85.4166176 C42.2032099,85.4166176 42.334321,85.3875 42.4071605,85.3292647 C42.4654321,85.2710294 42.5091358,85.1545588 42.5237037,84.9798529 C42.5528395,84.6158824 42.5674074,84.1063235 42.5674074,83.4802941 L42.5674074,80.9907353 C42.5674074,80.5248529 42.5674074,80.0589706 42.5528395,79.6076471 C42.5528395,79.4183824 42.5237037,79.2727941 42.48,79.2145588 C42.4362963,79.1417647 42.3780247,79.0835294 42.2906173,79.0252941 C42.2032099,78.9670588 42.0866667,78.9379412 41.9409877,78.9379412 L41.6496296,78.9379412 L41.6496296,78.6176471 C42.0575309,78.6467647 42.3634568,78.6467647 42.5674074,78.6467647 C42.8004938,78.6467647 43.0481481,78.6322059 43.3249383,78.6176471 C43.6308642,79.0252941 43.9367901,79.4183824 44.2135802,79.7969118 C44.4903704,80.1754412 44.7817284,80.5685294 45.0730864,80.9616176 L46.7046914,83.0726471 C47.2874074,83.8297059 47.7098765,84.3538235 47.9720988,84.645 L47.9720988,81.3838235 C47.9720988,80.0298529 47.942963,79.3019118 47.8992593,79.1708824 C47.8555556,79.0398529 47.6661728,78.9670588 47.345679,78.9379412 L46.9814815,78.8942647 L46.9814815,78.5739706 C47.491358,78.6030882 47.8992593,78.6176471 48.1760494,78.6176471 C48.4674074,78.6176471 48.8461728,78.6030882 49.3123457,78.5885294 L49.3123457,78.9088235 L48.9481481,78.9088235 C48.6567901,78.9088235 48.4819753,79.0107353 48.4382716,79.2145588 C48.4091358,79.3455882 48.3945679,80.0880882 48.3945679,81.4129412 L48.3945679,83.6841176 C48.3945679,84.2955882 48.4237037,85.0235294 48.4674074,85.8679412 C48.0303704,85.7951471 47.782716,85.7514706 47.7098765,85.7077941 C47.637037,85.6786765 47.5787654,85.6204412 47.5059259,85.5476471 C47.1562963,85.14 46.7775309,84.6741176 46.3987654,84.1791176 L42.9898765,79.7095588 Z M49.8076543,85.4166176 L50.1135802,85.4166176 C50.4049383,85.4166176 50.5797531,85.3438235 50.6380247,85.1836765 C50.6962963,85.0380882 50.7254321,84.3101471 50.7254321,83.0144118 L50.7254321,81.3110294 C50.7254321,79.9716176 50.6962963,79.2291176 50.6525926,79.0980882 C50.6088889,78.9670588 50.448642,78.8942647 50.2009877,78.8942647 L49.8222222,78.8942647 L49.8222222,78.5739706 C50.3466667,78.6030882 50.8711111,78.6030882 51.3809877,78.6030882 C51.8034568,78.6030882 52.1967901,78.5885294 52.5464198,78.5739706 L52.5464198,78.8942647 L52.1822222,78.8942647 C51.9637037,78.8942647 51.8180247,78.9233824 51.7597531,78.9816176 C51.7014815,79.0398529 51.6723457,79.1854412 51.6577778,79.4183824 C51.6432099,79.7823529 51.628642,80.4083824 51.628642,81.3255882 L51.628642,83.0580882 C51.628642,84.3538235 51.6577778,85.0817647 51.7160494,85.2127941 C51.774321,85.3438235 51.9491358,85.4166176 52.2404938,85.4166176 L52.5609877,85.4166176 L52.5609877,85.7369118 C52.1676543,85.7077941 51.7451852,85.7077941 51.2790123,85.7077941 C50.74,85.7077941 50.2592593,85.7223529 49.8367901,85.7369118 L49.8367901,85.4166176 L49.8076543,85.4166176 Z M58.9271605,80.3938235 L58.8834568,79.5057353 C58.6066667,79.3019118 58.3007407,79.1563235 57.9948148,79.0689706 C57.6888889,78.9670588 57.3683951,78.9233824 57.0187654,78.9233824 C56.1592593,78.9233824 55.4745679,79.2 54.9646914,79.7532353 C54.4548148,80.3064706 54.1925926,81.0344118 54.1925926,81.9661765 C54.1925926,82.6067647 54.3237037,83.1891176 54.5859259,83.6986765 C54.8481481,84.2082353 55.2123457,84.6013235 55.7076543,84.9070588 C56.1883951,85.1982353 56.6982716,85.3438235 57.237284,85.3438235 C57.6597531,85.3438235 58.0822222,85.3001471 58.5046914,85.1836765 C58.8106173,85.1108824 59.1311111,84.9507353 59.437037,84.7032353 L59.5390123,84.8051471 C59.4661728,84.9652941 59.4079012,85.1108824 59.3496296,85.2710294 C58.9854321,85.4602941 58.6066667,85.6058824 58.2279012,85.7077941 C57.8491358,85.8097059 57.4703704,85.8533824 57.0916049,85.8533824 C56.3049383,85.8533824 55.6202469,85.6932353 55.0375309,85.3729412 C54.4402469,85.0526471 53.988642,84.6158824 53.6681481,84.0480882 C53.3476543,83.4802941 53.1874074,82.8542647 53.1874074,82.1408824 C53.1874074,81.4420588 53.3476543,80.8014706 53.6681481,80.2482353 C53.988642,79.695 54.4402469,79.2582353 55.022963,78.9525 C55.605679,78.6467647 56.3195062,78.4866176 57.1790123,78.4866176 C57.6306173,78.4866176 58.1550617,78.5594118 58.7523457,78.7195588 C59.0582716,78.7923529 59.291358,78.8505882 59.4807407,78.8797059 C59.3350617,79.2436765 59.2622222,79.7386765 59.2330864,80.3938235 L58.9271605,80.3938235 L58.9271605,80.3938235 Z M64.7106173,83.3201471 L61.957284,83.3201471 L61.6367901,84.1354412 C61.4182716,84.6741176 61.3162963,84.9944118 61.3162963,85.1254412 C61.3162963,85.1982353 61.3308642,85.2564706 61.3745679,85.2855882 C61.4182716,85.3147059 61.5202469,85.3438235 61.6804938,85.3583824 L62.1320988,85.4166176 L62.1320988,85.7369118 C61.8261728,85.7077941 61.4911111,85.7077941 61.0977778,85.7077941 C60.6461728,85.7077941 60.2382716,85.7223529 59.888642,85.7369118 L59.888642,85.4166176 L60.034321,85.4166176 C60.2528395,85.4020588 60.3985185,85.3875 60.471358,85.3438235 C60.5296296,85.3001471 60.6024691,85.1982353 60.6753086,85.0380882 C60.8938272,84.5576471 61.1269136,84.0335294 61.36,83.4802941 L62.6711111,80.3501471 C63.0207407,79.5202941 63.2538272,78.9233824 63.3849383,78.5448529 L63.7054321,78.5448529 L66.1237037,84.4411765 C66.2839506,84.8488235 66.3859259,85.0817647 66.4441975,85.1691176 C66.5024691,85.2564706 66.5607407,85.3147059 66.6335802,85.3438235 C66.7064198,85.3875 66.8520988,85.4020588 67.0997531,85.4166176 L67.0997531,85.7369118 C66.6918519,85.7077941 66.2985185,85.7077941 65.9197531,85.7077941 C65.5701235,85.7077941 65.1039506,85.7223529 64.5212346,85.7369118 L64.5212346,85.4166176 L64.9874074,85.3875 C65.1622222,85.3729412 65.2496296,85.3583824 65.2933333,85.3292647 C65.337037,85.3001471 65.3661728,85.2419118 65.3661728,85.1836765 C65.3661728,85.1254412 65.3224691,84.9652941 65.2204938,84.7177941 L64.7106173,83.3201471 Z M62.1320988,82.8979412 L64.5358025,82.8979412 L63.3412346,79.8697059 L62.1320988,82.8979412 Z M70.7854321,79.0398529 C70.7562963,79.5494118 70.7271605,80.0735294 70.7271605,80.6267647 L70.7271605,83.4948529 C70.7271605,84.5576471 70.7562963,85.14 70.8,85.2564706 C70.8437037,85.3583824 71.0330864,85.4166176 71.3390123,85.4166176 L71.7032099,85.4166176 L71.7032099,85.7369118 C71.1350617,85.7077941 70.6688889,85.7077941 70.2755556,85.7077941 C69.8822222,85.7077941 69.4160494,85.7223529 68.8624691,85.7369118 L68.8624691,85.4166176 L69.2703704,85.4166176 C69.474321,85.4166176 69.62,85.3875 69.6782716,85.3292647 C69.7365432,85.2710294 69.7802469,85.1545588 69.7948148,84.9798529 C69.8239506,84.5867647 69.8385185,84.0772059 69.8385185,83.4657353 L69.8385185,80.5976471 C69.8385185,80.0298529 69.8239506,79.5202941 69.8093827,79.0398529 L69.328642,79.0398529 C68.5419753,79.0398529 68.1195062,79.0544118 68.0320988,79.0980882 C67.9592593,79.1417647 67.9009877,79.2873529 67.8718519,79.5494118 L67.7990123,80.2191176 L67.4930864,80.2191176 L67.5076543,79.6222059 C67.5076543,79.3747059 67.4930864,79.0398529 67.4493827,78.5885294 C69.1538272,78.6176471 70.1735802,78.6176471 70.4649383,78.6176471 L73.1017284,78.5885294 C73.0434568,79.1563235 72.9997531,79.695 72.9997531,80.2191176 L72.7083951,80.2191176 L72.6646914,79.5639706 C72.6501235,79.3310294 72.6209877,79.2 72.577284,79.1563235 C72.5335802,79.1126471 72.4607407,79.0835294 72.3441975,79.0835294 C71.9945679,79.0544118 71.6012346,79.0398529 71.1496296,79.0398529 L70.7854321,79.0398529 L70.7854321,79.0398529 Z M73.5533333,85.4166176 L73.8592593,85.4166176 C74.1506173,85.4166176 74.3254321,85.3438235 74.3837037,85.1836765 C74.4419753,85.0380882 74.4711111,84.3101471 74.4711111,83.0144118 L74.4711111,81.3110294 C74.4711111,79.9716176 74.4419753,79.2291176 74.3982716,79.0980882 C74.34,78.9670588 74.194321,78.8942647 73.9466667,78.8942647 L73.5679012,78.8942647 L73.5679012,78.5739706 C74.0923457,78.6030882 74.6167901,78.6030882 75.1266667,78.6030882 C75.5491358,78.6030882 75.9424691,78.5885294 76.2920988,78.5739706 L76.2920988,78.8942647 L75.9279012,78.8942647 C75.7093827,78.8942647 75.5637037,78.9233824 75.5054321,78.9816176 C75.4471605,79.0398529 75.4180247,79.1854412 75.4034568,79.4183824 C75.3888889,79.7823529 75.374321,80.4083824 75.374321,81.3255882 L75.374321,83.0580882 C75.374321,84.3538235 75.4034568,85.0817647 75.4617284,85.2127941 C75.52,85.3438235 75.6802469,85.4166176 75.9861728,85.4166176 L76.3066667,85.4166176 L76.3066667,85.7369118 C75.9133333,85.7077941 75.4908642,85.7077941 75.0246914,85.7077941 C74.485679,85.7077941 74.0049383,85.7223529 73.5679012,85.7369118 L73.5679012,85.4166176 L73.5533333,85.4166176 Z M76.7728395,82.1554412 C76.7728395,81.0489706 77.1079012,80.1608824 77.7780247,79.4911765 C78.4481481,78.8214706 79.351358,78.4866176 80.4730864,78.4866176 C81.565679,78.4866176 82.4251852,78.7923529 83.0516049,79.4183824 C83.6780247,80.0444118 83.9839506,80.8742647 83.9839506,81.9079412 C83.9839506,83.0289706 83.6197531,83.9607353 82.891358,84.7032353 C82.162963,85.4602941 81.2597531,85.8242647 80.1525926,85.8242647 C79.4679012,85.8242647 78.8706173,85.6786765 78.3753086,85.3875 C77.88,85.0963235 77.4866667,84.6595588 77.1953086,84.0917647 C76.9185185,83.5239706 76.7728395,82.8833824 76.7728395,82.1554412 M77.734321,81.7332353 C77.734321,82.4902941 77.8508642,83.1454412 78.0985185,83.7132353 C78.3461728,84.2664706 78.6666667,84.6886765 79.0891358,84.9798529 C79.497037,85.2564706 79.9777778,85.4020588 80.5022222,85.4020588 C80.9975309,85.4020588 81.42,85.2855882 81.7841975,85.0526471 C82.1483951,84.8197059 82.4397531,84.4557353 82.6582716,83.9898529 C82.8767901,83.5239706 82.9787654,82.9416176 82.9787654,82.2719118 C82.9787654,81.5585294 82.8622222,80.9616176 82.6291358,80.4520588 C82.3960494,79.9425 82.0755556,79.5639706 81.6676543,79.3164706 C81.2597531,79.0689706 80.7790123,78.9379412 80.2254321,78.9379412 C79.7155556,78.9379412 79.2785185,79.0544118 78.914321,79.2727941 C78.5501235,79.4911765 78.2587654,79.8260294 78.0548148,80.2627941 C77.8362963,80.6704412 77.734321,81.1654412 77.734321,81.7332353 M85.7758025,79.7095588 L85.7758025,83.1745588 C85.7758025,83.9607353 85.7903704,84.5139706 85.8195062,84.8342647 C85.848642,85.0672059 85.8777778,85.2127941 85.9360494,85.2710294 C85.9797531,85.3292647 86.14,85.3583824 86.3876543,85.3875 L86.6935802,85.4166176 L86.6935802,85.7369118 C86.3439506,85.7077941 86.0380247,85.7077941 85.7612346,85.7077941 C85.5718519,85.7077941 85.1202469,85.7223529 84.4355556,85.7369118 L84.4355556,85.4166176 L84.7851852,85.4166176 C84.9891358,85.4166176 85.1202469,85.3875 85.1930864,85.3292647 C85.251358,85.2710294 85.2950617,85.1545588 85.3096296,84.9798529 C85.3533333,84.6158824 85.3679012,84.1063235 85.3679012,83.4802941 L85.3679012,80.9907353 C85.3679012,80.5248529 85.3679012,80.0589706 85.3533333,79.6076471 C85.3533333,79.4183824 85.3241975,79.2727941 85.2804938,79.2145588 C85.2367901,79.1417647 85.1785185,79.0835294 85.0911111,79.0252941 C85.0037037,78.9670588 84.8871605,78.9379412 84.7414815,78.9379412 L84.4501235,78.9379412 L84.4501235,78.6176471 C84.8580247,78.6467647 85.1639506,78.6467647 85.3679012,78.6467647 C85.6009877,78.6467647 85.848642,78.6322059 86.1254321,78.6176471 C86.431358,79.0252941 86.737284,79.4183824 87.0140741,79.7969118 C87.2908642,80.1754412 87.5822222,80.5685294 87.8735802,80.9616176 L89.5051852,83.0726471 C90.0879012,83.8297059 90.5103704,84.3538235 90.7725926,84.645 L90.7725926,81.3838235 C90.7725926,80.0298529 90.7434568,79.3019118 90.6997531,79.1708824 C90.6560494,79.0398529 90.4666667,78.9670588 90.1461728,78.9379412 L89.7819753,78.8942647 L89.7819753,78.5739706 C90.2918519,78.6030882 90.6851852,78.6030882 90.9765432,78.6030882 C91.2679012,78.6030882 91.6466667,78.5885294 92.1128395,78.5739706 L92.1128395,78.8942647 L91.748642,78.8942647 C91.457284,78.8942647 91.2824691,78.9961765 91.2387654,79.2 C91.2096296,79.3310294 91.1950617,80.0735294 91.1950617,81.3983824 L91.1950617,83.6695588 C91.1950617,84.2810294 91.2241975,85.0089706 91.2679012,85.8533824 C90.8308642,85.7805882 90.5832099,85.7369118 90.5103704,85.6932353 C90.4375309,85.6641176 90.3792593,85.6058824 90.3064198,85.5330882 C89.9567901,85.1254412 89.5780247,84.6595588 89.1992593,84.1645588 L85.7758025,79.7095588 Z M96.8765432,78.9088235 C96.7891358,79.2582353 96.7454321,79.7241176 96.7308642,80.2919118 L96.3958025,80.2919118 L96.3958025,79.8842647 C96.3958025,79.6222059 96.3666667,79.4475 96.2938272,79.3601471 C96.2209877,79.2582353 96.0461728,79.1708824 95.7693827,79.0544118 C95.4925926,78.9525 95.1866667,78.8942647 94.8807407,78.8942647 C94.3708642,78.8942647 93.9775309,79.0252941 93.6861728,79.3019118 C93.3948148,79.5785294 93.2491358,79.9279412 93.2491358,80.3501471 C93.2491358,80.6122059 93.3074074,80.8451471 93.4239506,81.0344118 C93.5404938,81.2236765 93.7007407,81.3692647 93.9046914,81.4566176 C94.108642,81.5439706 94.5311111,81.6167647 95.1866667,81.675 C95.8422222,81.7477941 96.2792593,81.8351471 96.5123457,81.9370588 C96.7454321,82.0535294 96.9202469,82.2282353 97.0659259,82.4757353 C97.197037,82.7232353 97.2698765,83.0144118 97.2698765,83.3492647 C97.2698765,84.0189706 97.0076543,84.6013235 96.468642,85.0817647 C95.9296296,85.5622059 95.2303704,85.8097059 94.3417284,85.8097059 C94.0358025,85.8097059 93.7298765,85.7805882 93.4239506,85.7077941 C93.1180247,85.6495588 92.7975309,85.5476471 92.4916049,85.4166176 C92.5498765,85.0089706 92.5790123,84.4994118 92.5790123,83.8733824 L92.8995062,83.8733824 L92.8995062,84.1208824 C92.8995062,84.4411765 92.9140741,84.645 92.9432099,84.7177941 C92.9723457,84.7905882 93.0451852,84.8779412 93.1617284,84.9652941 C93.3365432,85.0963235 93.5404938,85.1982353 93.7881481,85.2564706 C94.0212346,85.3292647 94.2834568,85.3583824 94.5602469,85.3583824 C95.1575309,85.3583824 95.6237037,85.2127941 95.9441975,84.9070588 C96.2646914,84.6158824 96.4395062,84.2373529 96.4395062,83.7714706 C96.4395062,83.5094118 96.3812346,83.2764706 96.2792593,83.0872059 C96.162716,82.8979412 96.017037,82.7669118 95.8130864,82.6795588 C95.6091358,82.5922059 95.2449383,82.5194118 94.7059259,82.4757353 C93.9920988,82.4175 93.4967901,82.3301471 93.2491358,82.1991176 C92.9869136,82.0826471 92.7975309,81.8933824 92.6518519,81.6313235 C92.5061728,81.3692647 92.4333333,81.0489706 92.4333333,80.6704412 C92.4333333,80.0152941 92.6518519,79.4766176 93.1034568,79.0689706 C93.5550617,78.6613235 94.1669136,78.4429412 94.9535802,78.4429412 C95.2740741,78.4429412 95.5945679,78.4866176 95.9004938,78.5448529 C96.2064198,78.6030882 96.5560494,78.7632353 96.8765432,78.9088235" id="Shape" fill="#FFFFFF" fill-rule="nonzero"></path><path d="M143.639506,81.6604412 L143.930864,81.18 C144.265926,81.2091176 144.51358,81.2091176 144.702963,81.2091176 L145.314815,81.1945588 C145.912099,81.18 146.407407,81.1654412 146.815309,81.1654412 C146.757037,81.4711765 146.727901,81.7186765 146.698765,81.9225 C146.349136,81.8642647 145.882963,81.8205882 145.300247,81.8060294 C145.343951,81.9807353 145.358519,82.1408824 145.358519,82.2719118 C145.358519,82.5630882 145.300247,82.8397059 145.169136,83.1454412 C145.038025,83.4511765 144.834074,83.7569118 144.528148,84.1063235 C144.86321,84.3683824 145.169136,84.5576471 145.460494,84.6741176 C145.751852,84.7905882 146.028642,84.8488235 146.261728,84.8488235 C146.378272,84.8488235 146.567654,84.7614706 146.815309,84.6013235 L146.888148,84.8488235 C146.480247,85.1691176 146.188889,85.4020588 146.028642,85.5622059 C145.897531,85.6058824 145.76642,85.635 145.635309,85.635 C145.14,85.635 144.557284,85.3438235 143.901728,84.7614706 C143.537531,85.0817647 143.187901,85.3147059 142.896543,85.4457353 C142.590617,85.5767647 142.255556,85.635 141.905926,85.635 C141.308642,85.635 140.827901,85.4311765 140.449136,85.0235294 C140.07037,84.6158824 139.880988,84.1063235 139.880988,83.5094118 C139.880988,82.9998529 140.026667,82.5485294 140.303457,82.1554412 C140.49284,81.8788235 140.857037,81.5730882 141.410617,81.2091176 C141.221235,80.685 141.133827,80.2336765 141.133827,79.8551471 C141.133827,79.5639706 141.177531,79.3310294 141.25037,79.1126471 C141.308642,78.9670588 141.396049,78.8214706 141.556296,78.6904412 C141.935062,78.3410294 142.182716,78.1372059 142.270123,78.0789706 C142.415802,77.9916176 142.590617,77.9625 142.78,77.9625 C143.05679,77.9625 143.275309,78.0498529 143.420988,78.2391176 C143.581235,78.4283824 143.654074,78.6613235 143.654074,78.9816176 C143.654074,79.695 143.187901,80.4229412 142.240988,81.1363235 C142.765432,82.1991176 143.435556,83.1163235 144.251358,83.9025 C144.426173,83.655 144.557284,83.4366176 144.630123,83.2327941 C144.702963,83.0289706 144.732099,82.8105882 144.732099,82.5922059 C144.732099,82.3447059 144.688395,82.1408824 144.615556,81.9807353 C144.58642,81.9079412 144.528148,81.8642647 144.469877,81.8351471 C144.353333,81.8060294 144.091111,81.7914706 143.668642,81.7914706 L143.639506,81.6604412 Z M142.080741,80.7286765 C142.678025,80.2045588 142.969383,79.695 142.969383,79.2 C142.969383,78.9816176 142.925679,78.8069118 142.823704,78.6758824 C142.721728,78.5448529 142.605185,78.4720588 142.444938,78.4720588 C142.270123,78.4720588 142.109877,78.5448529 142.007901,78.705 C141.891358,78.8651471 141.833086,79.0980882 141.833086,79.4183824 C141.833086,79.7823529 141.905926,80.2045588 142.080741,80.7286765 M143.639506,84.4702941 C142.867407,83.7132353 142.197284,82.7377941 141.585432,81.5730882 C141.279506,81.8060294 141.060988,82.0535294 140.929877,82.2864706 C140.798765,82.5339706 140.740494,82.7960294 140.740494,83.1017647 C140.740494,83.5967647 140.900741,84.0335294 141.206667,84.4120588 C141.512593,84.8051471 141.905926,84.9944118 142.372099,84.9944118 C142.78,84.9944118 143.202469,84.8197059 143.639506,84.4702941" id="Shape" fill="#FFFFFF" fill-rule="nonzero"></path></g></g></g></g></svg> 