<?xml version="1.0" encoding="UTF-8"?><!DOCTYPE svg PUBLIC "-//W3C//DTD SVG 1.1//EN" "http://www.w3.org/Graphics/SVG/1.1/DTD/svg11.dtd"><svg xmlns="http://www.w3.org/2000/svg" xmlns:xlink="http://www.w3.org/1999/xlink"><defs><clipPath id="4x-innovation-circles-a"><path fill="none" d="M0 0h620v620H0z"/></clipPath><clipPath id="blue-quater-ring-a"><path fill="none" d="M0 0h144v143H0z"/></clipPath><linearGradient id="choice-logo-colour-a" x1="-3.85" y1="253.96" x2="245.03" y2="52.64" gradientTransform="matrix(1 0 0 -1 0 314)" gradientUnits="userSpaceOnUse"><stop offset=".05" stop-color="#268d44"/><stop offset=".16" stop-color="#5b099e"/><stop offset=".36" stop-color="#5322af"/><stop offset=".61" stop-color="#484ccb"/><stop offset=".9" stop-color="#3785f1"/><stop offset="1" stop-color="#159dd8"/></linearGradient><linearGradient id="choice-logo-colour-b" x1="176.8" y1="129.44" x2="255.6" y2="65.71" gradientTransform="matrix(1 0 0 -1 0 314)" gradientUnits="userSpaceOnUse"><stop offset="0" stop-color="#1a1a1a"/><stop offset=".27" stop-color="#1f3851" stop-opacity=".76"/><stop offset=".64" stop-color="#308eec" stop-opacity=".08"/><stop offset=".68" stop-color="#159dd8" stop-opacity="0"/></linearGradient><linearGradient id="grad-circle-a" x1="-780.97" y1="721.86" x2="-780.36" y2="721.14" gradientTransform="matrix(-359.16 0 0 359.16 -280203.91 -258952.75)" gradientUnits="userSpaceOnUse"><stop offset="0" stop-color="#159dd8"/><stop offset="1" stop-color="#268d44"/></linearGradient><path id="grad-quater-circle-rotated-a" d="M0 0h96v96H0z"/><linearGradient id="grad-quater-circle-b" x1="-906.06" y1="586.3" x2="-905.44" y2="585.58" gradientTransform="matrix(192 0 0 -192 174001 112501)" gradientUnits="userSpaceOnUse"><stop offset="0" stop-color="#159dd8"/><stop offset="1" stop-color="#268d44"/></linearGradient><clipPath id="grad-quater-circle-a"><path fill="none" d="M0 0h96v96H0z"/></clipPath><linearGradient id="grad-quater-ring-b" x1="-912.6" y1="583.72" x2="-913.58" y2="583.71" gradientTransform="scale(190.36 -190.36) rotate(90 -164.43 748.148)" gradientUnits="userSpaceOnUse"><stop offset="0" stop-color="#3298ff"/><stop offset="1" stop-color="#268d44"/></linearGradient><clipPath id="grad-quater-ring-a"><path fill="none" d="M0 0h96v95.33H0z"/></clipPath><linearGradient id="homepage-grad-ring-b" x1="-449.56" y1="1049.47" x2="-448.56" y2="1049.47" gradientTransform="matrix(1018.45 0 0 -1018.45 457853.85 1069345.65)" gradientUnits="userSpaceOnUse"><stop offset="0" stop-color="#3298ff"/><stop offset="1" stop-color="#268d44"/></linearGradient><clipPath id="homepage-grad-ring-a"><path d="M57.89 509.23c0-249.27 202.07-451.34 451.34-451.34s451.34 202.07 451.34 451.34S758.5 960.57 509.23 960.57 57.89 758.49 57.89 509.23M509.23 0C227.99 0 0 227.99 0 509.23s227.99 509.23 509.23 509.23 509.23-227.99 509.23-509.23S790.46 0 509.23 0Z" fill="none"/></clipPath><linearGradient id="partner-grad-x-a" x1="-888.82" y1="591.06" x2="-888.82" y2="590.06" gradientTransform="matrix(0 -111.8 -149 0 88068 -99314.2)" gradientUnits="userSpaceOnUse"><stop offset="0" stop-color="#159dd8"/><stop offset="1" stop-color="#268d44"/></linearGradient><path id="SVGID_1_" d="M0 0h144v143H0z"/><clipPath id="pink-quater-ring-a"><path fill="none" d="M0 0h144v143H0z"/></clipPath><clipPath id="purple-quater-ring-a"><path fill="none" d="M0 0h144v143H0z"/></clipPath><rect id="shape-quater-filled-a" y="0"/><path id="SVGID_1_" d="M.5-.5h143v144H.5z"/><clipPath id="white-quater-ring-a"><path fill="none" d="M0 0h144v143H0z"/></clipPath></defs><symbol id="icon-4x-innovation-circles" viewBox="0 0 620 620"><g data-name="Group 13457"><circle data-name="Ellipse 284" cx="491.53" cy="492.63" r="49.17" fill="#159dd8"/><circle data-name="Ellipse 285" cx="158.62" cy="211.66" r="39.34" fill="#159dd8"/><circle data-name="Ellipse 286" cx="235.65" cy="275.58" r="24.58" fill="#159dd8"/><circle data-name="Ellipse 287" cx="349.64" cy="374.15" r="103.48" fill="#159dd8"/><g data-name="Mask Group 432" clip-path="url(#4x-innovation-circles-a)"><g data-name="Group 13456" fill="none"><path data-name="Path 15097" d="M615.63 270.27c192.02 0 347.67 155.66 347.67 347.67S807.64 965.61 615.63 965.61 267.95 809.95 267.95 617.94s155.66-347.67 347.68-347.67m392.26 347.67c0-216.64-175.62-392.27-392.26-392.27S223.37 401.3 223.37 617.94s175.62 392.26 392.27 392.26 392.26-175.62 392.26-392.26Z" stroke="#fff"/><g data-name="Ellipse 288"><circle cx="620" cy="620" r="620"/><circle cx="620" cy="620" r="619.5" stroke="#fff"/></g><g data-name="Ellipse 289"><circle cx="620.5" cy="620.5" r="183.5"/><circle cx="620.5" cy="620.5" r="183" stroke="#fff"/></g></g></g></g></symbol><symbol id="icon-arrow" viewBox="0 0 61.21 53.63"><g data-name="Icon feather-arrow-down" fill="none"><path data-name="Path 32" d="M2 26.82h57.21"/><path data-name="Path 33" d="m34.43 2.83 24.78 23.99-24.78 23.99"/></g></symbol><symbol id="icon-attachment" viewBox="0 0 16.5 33"><path data-name="Icon material-attach-file" d="M14.25 7.5v17.25c0 3.31-2.69 6-6 6s-6-2.69-6-6V6c0-2.07 1.68-3.75 3.75-3.75S9.75 3.93 9.75 6v15.75c0 .83-.67 1.5-1.5 1.5s-1.5-.67-1.5-1.5V7.5H4.5v14.25c0 2.07 1.68 3.75 3.75 3.75S12 23.82 12 21.75V6c0-3.31-2.69-6-6-6S0 2.69 0 6v18.75C0 29.31 3.69 33 8.25 33s8.25-3.69 8.25-8.25V7.5h-2.25Z"/></symbol><symbol id="icon-author" viewBox="0 0 21.6 21.6"><path data-name="Icon awesome-pen-nib" d="M5.76 5.86c-.86.24-1.54.9-1.83 1.74L0 19.41l.62.62 6.33-6.33c-.49-1.02-.06-2.24.95-2.73 1.02-.49 2.24-.06 2.73.95.49 1.02.06 2.24-.95 2.73-.56.27-1.21.27-1.77 0l-6.34 6.33.62.62L14 17.66c.85-.28 1.5-.97 1.74-1.83l1.81-6.39-5.4-5.4-6.39 1.81ZM21 3.13 18.46.59c-.79-.79-2.07-.79-2.86 0l-2.39 2.39 5.4 5.4L21 5.99c.79-.79.79-2.07 0-2.87Z" fill="#fff"/></symbol><symbol id="icon-award" viewBox="0 0 33.5 50.92"><g data-name="Icon feather-award" fill="none"><path data-name="Path 15003" d="M32 16.75C32 25.17 25.17 32 16.75 32S1.5 25.17 1.5 16.75 8.32 1.5 16.74 1.5s15.25 6.82 15.25 15.24Z"/><path data-name="Path 15004" d="M8.49 29.58 5.85 49.43l10.89-6.53 10.89 6.53-2.64-19.87"/></g></symbol><symbol id="icon-b-logo-white" viewBox="0 0 256.3 312.6"><g style="enable-background:new 0 0 256.3 312.6"><path d="M250.2 179.4c-3.9-9.6-9.3-18.1-16.1-25.4-2.5-2.7-5.8-5.3-9.3-7.6 0 0-.5-.4-1.5-.9-2.5 3.2-5.1 6.2-8 9.1-8.5 8.5-18.4 15.2-29.4 19.8-.5.2-.9.4-1.4.6 2.9 1 5.6 2.4 8.1 4.1.4.3.7.5.8.5l.2.2c2.4 1.6 4.7 3.5 6.6 5.6 3 3.2 5.4 7 7.2 11.5 1.7 4.2 2.6 9.2 2.6 14.9 0 10.4-1.9 18.8-5.5 25.1-3.9 6.7-8.9 11.9-15.3 16-7.2 4.6-15.6 7.9-25.1 9.9-10.5 2.3-21.4 3.4-32.5 3.4H91c-11.9 0-23.2-4.6-31.6-13.1-8.5-8.4-13.1-19.7-13.1-31.6v-136c0-21.7 17.6-39.3 39.3-39.3h33.1c8.7 0 17.9.9 27.1 2.8 8.2 1.6 15.7 4.4 22.2 8.2 5.6 3.3 10 7.6 13.6 13.2 3.1 5 4.7 12.1 4.7 21.1s-2.1 16.2-6.5 21.6c-1.1 1.2-2.5 2.5-4.2 3.8-8.6 6.6-19.2 10.1-30 10.1h-5.8c-12.7 0-23.2 10.2-23.2 22.9s10.3 23.1 23 23.1h21.6c22.3-2.9 41.8-14.5 55.1-31.3.1-.1.2-.3.4-.5 10.6-13.6 16-30.2 16-49.7 0-17.9-4-33.3-11.8-45.8-7.5-11.9-17.4-21.5-29.4-28.5-11-6.4-23.3-11-36.6-13.6C142.5 1.2 130.4 0 118.6 0h-33C74 0 62.8 2.3 52.2 6.7 42.1 11 32.9 17.2 25.1 25.1s-14 17-18.3 27.2C2.3 62.8 0 74 0 85.5v136.1c0 12.3 2.4 24.2 7.2 35.4 4.6 10.8 11.1 20.6 19.5 28.9s18.1 14.9 28.9 19.5c11.2 4.8 23.1 7.1 35.4 7.1h40.6c14.4 0 28.6-1.5 42.3-4.5 14.8-3.2 28.2-8.6 40-16 12.7-8 22.9-18.7 30.6-31.8 7.8-13.5 11.8-29.7 11.8-48.3 0-11.8-2-22.7-6.1-32.5z" style="fill:#fff"/></g></symbol><symbol id="icon-blue-quater-ring" viewBox="0 0 144 143"><g data-name="Mask Group 23" clip-path="url(#blue-quater-ring-a)"><path data-name="Path 10694" d="M.77 126.54c-69.89 0-126.54-56.65-126.54-126.54S-69.12-126.54.77-126.54 127.31-69.89 127.31 0 70.66 126.54.77 126.54M-142 0C-142 78.85-78.08 142.77.77 142.77c78.85 0 142.77-63.92 142.77-142.77 0-78.85-63.92-142.77-142.77-142.77C-78.08-142.77-142-78.85-142 0Z" fill="none" stroke="#159dd8"/></g></symbol><symbol id="icon-choice-logo-colour" viewBox="0 0 1274.5 312.58"><path d="M250.24 179.4c-3.93-9.57-9.34-18.11-16.08-25.39-2.49-2.69-5.76-5.33-9.28-7.57 0 0-.53-.35-1.54-.94a92.24 92.24 0 0 1-8.02 9.13c-8.49 8.49-18.38 15.16-29.39 19.82-.48.2-.95.4-1.43.59 2.85 1.01 5.58 2.37 8.12 4.07.44.3.7.48.75.52.14.1.22.16.24.17a37.09 37.09 0 0 1 6.63 5.65c3.01 3.25 5.37 7.01 7.21 11.5 1.72 4.2 2.59 9.23 2.59 14.95 0 10.35-1.86 18.79-5.52 25.08-3.9 6.71-8.91 11.94-15.31 15.98-7.19 4.55-15.63 7.89-25.09 9.94-10.51 2.28-21.45 3.43-32.54 3.43H90.95c-11.95 0-23.18-4.65-31.62-13.1-8.45-8.45-13.1-19.68-13.1-31.62V85.55c0-21.71 17.6-39.31 39.31-39.31h33.09c8.74 0 17.88.93 27.14 2.76 8.2 1.62 15.66 4.37 22.17 8.17 5.58 3.26 10.02 7.59 13.57 13.22 3.14 4.99 4.73 12.1 4.73 21.13s-2.13 16.25-6.52 21.63c-1.1 1.22-2.54 2.5-4.2 3.77-8.6 6.58-19.17 10.06-29.99 10.06h-5.82c-12.71 0-23.2 10.2-23.24 22.91-.04 12.73 10.27 23.07 22.99 23.07h21.62c22.26-2.94 41.78-14.54 55.07-31.31l.37-.46c10.6-13.56 15.97-30.25 15.97-49.66 0-17.89-3.98-33.28-11.84-45.77-7.5-11.9-17.38-21.49-29.36-28.5-10.98-6.42-23.28-11-36.55-13.62C142.53 1.23 130.38 0 118.64 0H85.55C74 0 62.8 2.27 52.25 6.74c-10.19 4.31-19.34 10.48-27.19 18.33s-14.02 17-18.33 27.19C2.26 62.8 0 74.01 0 85.55v136.06c0 12.28 2.41 24.19 7.15 35.41 4.58 10.83 11.14 20.56 19.49 28.91s18.08 14.91 28.91 19.49c11.22 4.75 23.13 7.15 35.41 7.15h40.63c14.37 0 28.61-1.51 42.33-4.48 14.76-3.2 28.22-8.6 40-16.04 12.66-8 22.95-18.71 30.58-31.82 7.82-13.45 11.79-29.71 11.79-48.34 0-11.76-2.04-22.69-6.05-32.49Z" fill="url(#choice-logo-colour-a)"/><path d="M250.24 179.4c-3.93-9.57-9.34-18.11-16.08-25.39-2.49-2.69-5.76-5.33-9.28-7.57 0 0-.53-.35-1.54-.94a92.24 92.24 0 0 1-8.02 9.13c-8.49 8.49-18.38 15.16-29.39 19.82-.48.2-.95.4-1.43.59 2.85 1.01 5.58 2.37 8.12 4.07.44.3.7.48.75.52.14.1.22.16.24.17a37.09 37.09 0 0 1 6.63 5.65c3.01 3.25 5.37 7.01 7.21 11.5 1.72 4.2 2.59 9.23 2.59 14.95 0 10.35-1.86 18.79-5.52 25.08-3.9 6.71-8.91 11.94-15.31 15.98l24.71 39.09c12.66-8 22.95-18.71 30.58-31.82 7.82-13.45 11.79-29.71 11.79-48.34 0-11.76-2.04-22.69-6.05-32.49Z" fill="url(#choice-logo-colour-b)"/><path d="M344.37 241.63V68.15h73.12c10.87 0 20.26 1.94 28.18 5.82 7.92 3.88 13.97 9.31 18.17 16.3s6.28 15.37 6.28 25.15c0 8.23-2.13 15.8-6.4 22.7-4.27 6.91-10.91 12.45-19.91 16.65V142.9c7.92 3.11 14.36 7.03 19.33 11.76 4.97 4.74 8.58 10.05 10.83 15.95s3.38 12.11 3.38 18.63c0 16.3-5.32 29.11-15.95 38.42s-25.26 13.97-43.89 13.97h-73.14Zm27.48-104.32h46.11c7.45 0 13.42-2.13 17.93-6.4 4.5-4.27 6.75-9.82 6.75-16.65s-2.26-12.42-6.75-16.3c-4.51-3.88-10.48-5.82-17.93-5.82h-46.11v45.17Zm0 79.87h47.74c9.16 0 16.49-2.52 22-7.56s8.27-11.76 8.27-20.14-2.76-15.14-8.27-20.26-12.85-7.69-22-7.69h-47.74v55.65ZM497.81 241.63V115.65h25.15v25.62l-2.33-3.73c2.79-8.38 7.3-14.39 13.51-18.05 6.2-3.65 13.66-5.47 22.35-5.47h7.68v23.99h-10.94c-8.7 0-15.72 2.71-21.08 8.15-5.36 5.43-8.03 13.04-8.03 22.82v72.66h-26.31ZM577.93 98.42V68.15h26.31v30.27h-26.31Zm0 143.21V115.65h26.31v125.98h-26.31ZM681.7 243.02c-13.2 0-23.44-3.72-30.74-11.17s-10.95-17.93-10.95-31.43v-60.78h-22.35v-23.99h3.49c5.9 0 10.51-1.71 13.85-5.12 3.34-3.42 5.01-8.07 5.01-13.98v-9.78h26.31v28.87h28.64v23.99h-28.64v59.61c0 4.35.7 8.03 2.1 11.06 1.4 3.03 3.65 5.36 6.75 6.99s7.14 2.44 12.11 2.44c1.24 0 2.64-.08 4.19-.23 1.55-.16 3.03-.31 4.43-.47v22.59c-2.18.31-4.58.62-7.22.93-2.64.31-4.97.46-6.99.46h.01ZM753.19 244.43c-8.54 0-16.03-1.48-22.47-4.43-6.44-2.95-11.45-7.14-15.02-12.58s-5.36-11.79-5.36-19.09c0-6.83 1.52-12.96 4.54-18.4 3.03-5.43 7.69-10.01 13.97-13.74 6.29-3.73 14.32-6.37 24.1-7.92l43.78-7.22v20.96l-38.65 6.52c-6.99 1.24-12.11 3.49-15.37 6.75s-4.89 7.3-4.89 12.11 1.82 8.73 5.47 11.76c3.65 3.02 8.34 4.54 14.09 4.54 6.99 0 13.16-1.55 18.51-4.66 5.36-3.1 9.55-7.25 12.57-12.45 3.03-5.2 4.54-10.98 4.54-17.35v-32.37c0-6.06-2.33-11.06-6.99-15.02-4.65-3.96-10.79-5.94-18.39-5.94-6.83 0-12.85 1.79-18.05 5.36s-9.05 8.31-11.53 14.21l-22.12-10.95c2.48-6.21 6.32-11.72 11.53-16.53 5.2-4.81 11.33-8.54 18.4-11.18 7.06-2.64 14.63-3.96 22.7-3.96 9.93 0 18.75 1.86 26.43 5.59 7.68 3.73 13.66 8.89 17.93 15.49s6.4 14.24 6.4 22.94v84.76h-25.15v-22.59l5.12.47c-2.95 5.12-6.67 9.54-11.18 13.27-4.5 3.72-9.7 6.59-15.6 8.61-5.9 2.02-12.34 3.03-19.33 3.03h.02ZM845.88 241.63V115.65h25.15v24.69l-3.03-3.26c3.1-7.92 8.07-13.93 14.9-18.05 6.83-4.11 14.75-6.17 23.75-6.17s17.54 2.02 24.68 6.06c7.14 4.03 12.73 9.63 16.76 16.76 4.04 7.15 6.06 15.37 6.06 24.69v81.27h-26.31v-74.28c0-6.21-1.16-11.52-3.49-15.95s-5.59-7.88-9.78-10.36-9.01-3.73-14.44-3.73-10.29 1.25-14.55 3.73c-4.27 2.49-7.57 5.94-9.9 10.36-2.33 4.43-3.49 9.74-3.49 15.95v74.28h-26.31ZM978.15 241.63V115.65h25.15v24.69l-3.03-3.26c3.1-7.92 8.07-13.93 14.9-18.05 6.83-4.11 14.75-6.17 23.75-6.17s17.54 2.02 24.68 6.06c7.14 4.03 12.73 9.63 16.76 16.76 4.04 7.15 6.06 15.37 6.06 24.69v81.27h-26.31v-74.28c0-6.21-1.16-11.52-3.49-15.95s-5.59-7.88-9.78-10.36c-4.19-2.48-9.01-3.73-14.44-3.73s-10.29 1.25-14.55 3.73c-4.27 2.49-7.57 5.94-9.9 10.36-2.33 4.43-3.49 9.74-3.49 15.95v74.28h-26.31ZM1109.71 98.42V68.15h26.31v30.27h-26.31Zm0 143.21V115.65h26.31v125.98h-26.31ZM1218.85 244.43c-12.58 0-23.75-2.91-33.53-8.73-9.78-5.82-17.46-13.7-23.05-23.63-5.59-9.94-8.38-21.19-8.38-33.77s2.8-23.6 8.38-33.53c5.59-9.93 13.27-17.73 23.05-23.4 9.78-5.66 20.96-8.5 33.53-8.5 8.54 0 16.53 1.52 23.98 4.54 7.46 3.02 13.93 7.18 19.45 12.45 5.51 5.28 9.58 11.49 12.22 18.63l-23.29 10.48c-2.64-6.52-6.83-11.76-12.57-15.71-5.75-3.96-12.34-5.94-19.8-5.94s-13.55 1.79-19.21 5.36c-5.66 3.57-10.13 8.46-13.39 14.67-3.26 6.22-4.89 13.27-4.89 21.19s1.63 15.02 4.89 21.31c3.26 6.28 7.72 11.22 13.39 14.78 5.67 3.58 12.07 5.36 19.21 5.36s14.05-1.98 19.8-5.94c5.74-3.96 9.93-9.28 12.57-15.96l23.29 10.95c-2.48 6.68-6.48 12.69-11.99 18.05-5.51 5.36-11.99 9.59-19.44 12.69-7.45 3.11-15.52 4.66-24.22 4.66Z"/></symbol><symbol id="icon-britannic-logo-white" viewBox="0 0 1274.5 312.58"><path d="M250.24 179.4c-3.93-9.57-9.34-18.11-16.08-25.39-2.49-2.69-5.76-5.33-9.28-7.57 0 0-.53-.35-1.54-.94a92.24 92.24 0 0 1-8.02 9.13c-8.49 8.49-18.38 15.16-29.39 19.82-.48.2-.95.4-1.43.59 2.85 1.01 5.58 2.37 8.12 4.07.44.3.7.48.75.52.14.1.22.16.24.17a37.09 37.09 0 0 1 6.63 5.65c3.01 3.25 5.37 7.01 7.21 11.5 1.72 4.2 2.59 9.23 2.59 14.95 0 10.35-1.86 18.79-5.52 25.08-3.9 6.71-8.91 11.94-15.31 15.98-7.19 4.55-15.63 7.89-25.09 9.94-10.51 2.28-21.45 3.43-32.54 3.43H90.95c-11.95 0-23.18-4.65-31.62-13.1-8.45-8.45-13.1-19.68-13.1-31.62V85.55c0-21.71 17.6-39.31 39.31-39.31h33.09c8.74 0 17.88.93 27.14 2.76 8.2 1.62 15.66 4.37 22.17 8.17 5.58 3.26 10.02 7.59 13.57 13.22 3.14 4.99 4.73 12.1 4.73 21.13s-2.13 16.25-6.52 21.63c-1.1 1.22-2.54 2.5-4.2 3.77-8.6 6.58-19.17 10.06-29.99 10.06h-5.82c-12.71 0-23.2 10.2-23.24 22.91-.04 12.73 10.27 23.07 22.99 23.07h21.62c22.26-2.94 41.78-14.54 55.07-31.31l.37-.46c10.6-13.56 15.97-30.25 15.97-49.66 0-17.89-3.98-33.28-11.84-45.77-7.5-11.9-17.38-21.49-29.36-28.5-10.98-6.42-23.28-11-36.55-13.62C142.53 1.23 130.38 0 118.64 0H85.55C74 0 62.8 2.27 52.25 6.74c-10.19 4.31-19.34 10.48-27.19 18.33s-14.02 17-18.33 27.19C2.26 62.8 0 74.01 0 85.55v136.06c0 12.28 2.41 24.19 7.15 35.41 4.58 10.83 11.14 20.56 19.49 28.91s18.08 14.91 28.91 19.49c11.22 4.75 23.13 7.15 35.41 7.15h40.63c14.37 0 28.61-1.51 42.33-4.48 14.76-3.2 28.22-8.6 40-16.04 12.66-8 22.95-18.71 30.58-31.82 7.82-13.45 11.79-29.71 11.79-48.34 0-11.76-2.04-22.69-6.05-32.49Z" fill="#fff"/><g fill="#fff"><path d="M344.37 241.63V68.15h73.12c10.87 0 20.26 1.94 28.18 5.82 7.92 3.88 13.97 9.31 18.17 16.3s6.28 15.37 6.28 25.15c0 8.23-2.13 15.8-6.4 22.7-4.27 6.91-10.91 12.45-19.91 16.65V142.9c7.92 3.11 14.36 7.03 19.33 11.76 4.97 4.74 8.58 10.05 10.83 15.95s3.38 12.11 3.38 18.63c0 16.3-5.32 29.11-15.95 38.42s-25.26 13.97-43.89 13.97h-73.14Zm27.48-104.32h46.11c7.45 0 13.42-2.13 17.93-6.4 4.5-4.27 6.75-9.82 6.75-16.65s-2.26-12.42-6.75-16.3c-4.51-3.88-10.48-5.82-17.93-5.82h-46.11v45.17Zm0 79.87h47.74c9.16 0 16.49-2.52 22-7.56s8.27-11.76 8.27-20.14-2.76-15.14-8.27-20.26-12.85-7.69-22-7.69h-47.74v55.65ZM497.81 241.63V115.65h25.15v25.62l-2.33-3.73c2.79-8.38 7.3-14.39 13.51-18.05 6.2-3.65 13.66-5.47 22.35-5.47h7.68v23.99h-10.94c-8.7 0-15.72 2.71-21.08 8.15-5.36 5.43-8.03 13.04-8.03 22.82v72.66h-26.31ZM577.93 98.42V68.15h26.31v30.27h-26.31Zm0 143.21V115.65h26.31v125.98h-26.31ZM681.7 243.02c-13.2 0-23.44-3.72-30.74-11.17s-10.95-17.93-10.95-31.43v-60.78h-22.35v-23.99h3.49c5.9 0 10.51-1.71 13.85-5.12 3.34-3.42 5.01-8.07 5.01-13.98v-9.78h26.31v28.87h28.64v23.99h-28.64v59.61c0 4.35.7 8.03 2.1 11.06 1.4 3.03 3.65 5.36 6.75 6.99s7.14 2.44 12.11 2.44c1.24 0 2.64-.08 4.19-.23 1.55-.16 3.03-.31 4.43-.47v22.59c-2.18.31-4.58.62-7.22.93-2.64.31-4.97.46-6.99.46h.01ZM753.19 244.43c-8.54 0-16.03-1.48-22.47-4.43-6.44-2.95-11.45-7.14-15.02-12.58s-5.36-11.79-5.36-19.09c0-6.83 1.52-12.96 4.54-18.4 3.03-5.43 7.69-10.01 13.97-13.74 6.29-3.73 14.32-6.37 24.1-7.92l43.78-7.22v20.96l-38.65 6.52c-6.99 1.24-12.11 3.49-15.37 6.75s-4.89 7.3-4.89 12.11 1.82 8.73 5.47 11.76c3.65 3.02 8.34 4.54 14.09 4.54 6.99 0 13.16-1.55 18.51-4.66 5.36-3.1 9.55-7.25 12.57-12.45 3.03-5.2 4.54-10.98 4.54-17.35v-32.37c0-6.06-2.33-11.06-6.99-15.02-4.65-3.96-10.79-5.94-18.39-5.94-6.83 0-12.85 1.79-18.05 5.36s-9.05 8.31-11.53 14.21l-22.12-10.95c2.48-6.21 6.32-11.72 11.53-16.53 5.2-4.81 11.33-8.54 18.4-11.18 7.06-2.64 14.63-3.96 22.7-3.96 9.93 0 18.75 1.86 26.43 5.59 7.68 3.73 13.66 8.89 17.93 15.49s6.4 14.24 6.4 22.94v84.76h-25.15v-22.59l5.12.47c-2.95 5.12-6.67 9.54-11.18 13.27-4.5 3.72-9.7 6.59-15.6 8.61-5.9 2.02-12.34 3.03-19.33 3.03h.02ZM845.88 241.63V115.65h25.15v24.69l-3.03-3.26c3.1-7.92 8.07-13.93 14.9-18.05 6.83-4.11 14.75-6.17 23.75-6.17s17.54 2.02 24.68 6.06c7.14 4.03 12.73 9.63 16.76 16.76 4.04 7.15 6.06 15.37 6.06 24.69v81.27h-26.31v-74.28c0-6.21-1.16-11.52-3.49-15.95s-5.59-7.88-9.78-10.36-9.01-3.73-14.44-3.73-10.29 1.25-14.55 3.73c-4.27 2.49-7.57 5.94-9.9 10.36-2.33 4.43-3.49 9.74-3.49 15.95v74.28h-26.31ZM978.15 241.63V115.65h25.15v24.69l-3.03-3.26c3.1-7.92 8.07-13.93 14.9-18.05 6.83-4.11 14.75-6.17 23.75-6.17s17.54 2.02 24.68 6.06c7.14 4.03 12.73 9.63 16.76 16.76 4.04 7.15 6.06 15.37 6.06 24.69v81.27h-26.31v-74.28c0-6.21-1.16-11.52-3.49-15.95s-5.59-7.88-9.78-10.36c-4.19-2.48-9.01-3.73-14.44-3.73s-10.29 1.25-14.55 3.73c-4.27 2.49-7.57 5.94-9.9 10.36-2.33 4.43-3.49 9.74-3.49 15.95v74.28h-26.31ZM1109.71 98.42V68.15h26.31v30.27h-26.31Zm0 143.21V115.65h26.31v125.98h-26.31ZM1218.85 244.43c-12.58 0-23.75-2.91-33.53-8.73-9.78-5.82-17.46-13.7-23.05-23.63-5.59-9.94-8.38-21.19-8.38-33.77s2.8-23.6 8.38-33.53c5.59-9.93 13.27-17.73 23.05-23.4 9.78-5.66 20.96-8.5 33.53-8.5 8.54 0 16.53 1.52 23.98 4.54 7.46 3.02 13.93 7.18 19.45 12.45 5.51 5.28 9.58 11.49 12.22 18.63l-23.29 10.48c-2.64-6.52-6.83-11.76-12.57-15.71-5.75-3.96-12.34-5.94-19.8-5.94s-13.55 1.79-19.21 5.36c-5.66 3.57-10.13 8.46-13.39 14.67-3.26 6.22-4.89 13.27-4.89 21.19s1.63 15.02 4.89 21.31c3.26 6.28 7.72 11.22 13.39 14.78 5.67 3.58 12.07 5.36 19.21 5.36s14.05-1.98 19.8-5.94c5.74-3.96 9.93-9.28 12.57-15.96l23.29 10.95c-2.48 6.68-6.48 12.69-11.99 18.05-5.51 5.36-11.99 9.59-19.44 12.69-7.45 3.11-15.52 4.66-24.22 4.66Z"/></g></symbol><symbol id="icon-charity-pink" viewBox="0 0 48 48"><g data-name="Group 4024" fill="#159dd8"><path data-name="Path 9782" d="M5.29 19.73c.78-.93 1.97-.47 3.12.38l4.4 3.25 5.76 2.63c.64.29.58.72-.2.8-.71.06-1.39.34-1.95.78-.41.29-.47.37-.88.18l-4.45-2.03-5.56-4.22c-.55-.39-.67-1.15-.28-1.7.02-.03.04-.05.06-.08Z"/><path data-name="Path 9783" d="m5.43 23.7 4.83 3.2 4.45 1.59c.42.15.67.29.5.68-.22.55-.28 1.16-.17 1.74.11.27-.19.54-.53.45L8.5 29.73c-1.05-.75-5.49-4.27-5.49-4.27-.53-.32-.7-1-.39-1.54 0 0 0-.01.01-.02.65-.82 1.63-.97 2.8-.2Z"/><path data-name="Path 9784" d="m1.79 29.81 15.46 3.55 9.54.25 4.96 2.31c.76.36 1.23-.41.5-.84l-5-2.95-9.19-.35c-1.12-.17-1.63-.65-1.74-1.21-.21-1.07.71-2.41 2.6-2.65l13.2-1.69c4.07-.83 8.29.33 11.37 3.12l3.26 3.26a3.81 3.81 0 0 1 1.16 3.7c-.3 1.24-1 2.34-2 3.13-.94.85-2.2 1.25-3.45 1.11-1.04-.11-2.06-.54-3.17-.73-1.65-.31-3.33-.42-5-.32l-10.7.41c-1.46.03-2.91-.27-4.25-.87L.98 32.73c-1.89-.65-.74-3.27.8-2.92h.01Z"/><path data-name="Path 9785" d="m17.89 21.15 5.28 3.71.77.39c.49.25.39.7-.49.89l-2.14.25c-.63.07-1.25-.19-1.65-.68l-4.1-3.45c-1.24-1.04.69-2.27 2.33-1.11Z"/><path data-name="Path 9786" d="M23.46 8c1.27.06 2.44.69 3.2 1.71.29.35.81.4 1.16.11.04-.03.07-.07.11-.11A4.24 4.24 0 0 1 31.13 8c1.33.01 2.59.61 3.45 1.63a5.894 5.894 0 0 1 1.29 3.78 5.214 5.214 0 0 1-1.75 3.74l-5.3 5.07c-.9.64-2.11.65-3.02.02l-5.32-5.09a5.197 5.197 0 0 1-1.75-3.74 5.95 5.95 0 0 1 1.29-3.78A4.565 4.565 0 0 1 23.47 8Z"/></g></symbol><symbol id="icon-charity" viewBox="0 0 48 48"><g data-name="Group 4024"><path data-name="Path 9782" d="M5.29 19.73c.78-.93 1.97-.47 3.12.38l4.4 3.25 5.76 2.63c.64.29.58.72-.2.8-.71.06-1.39.34-1.95.78-.41.29-.47.37-.88.18l-4.45-2.03-5.56-4.22c-.55-.39-.67-1.15-.28-1.7.02-.03.04-.05.06-.08Z"/><path data-name="Path 9783" d="m5.43 23.7 4.83 3.2 4.45 1.59c.42.15.67.29.5.68-.22.55-.28 1.16-.17 1.74.11.27-.19.54-.53.45L8.5 29.73c-1.05-.75-5.49-4.27-5.49-4.27-.53-.32-.7-1-.39-1.54 0 0 0-.01.01-.02.65-.82 1.63-.97 2.8-.2Z"/><path data-name="Path 9784" d="m1.79 29.81 15.46 3.55 9.54.25 4.96 2.31c.76.36 1.23-.41.5-.84l-5-2.95-9.19-.35c-1.12-.17-1.63-.65-1.74-1.21-.21-1.07.71-2.41 2.6-2.65l13.2-1.69c4.07-.83 8.29.33 11.37 3.12l3.26 3.26a3.81 3.81 0 0 1 1.16 3.7c-.3 1.24-1 2.34-2 3.13-.94.85-2.2 1.25-3.45 1.11-1.04-.11-2.06-.54-3.17-.73-1.65-.31-3.33-.42-5-.32l-10.7.41c-1.46.03-2.91-.27-4.25-.87L.98 32.73c-1.89-.65-.74-3.27.8-2.92h.01Z"/><path data-name="Path 9785" d="m17.89 21.15 5.28 3.71.77.39c.49.25.39.7-.49.89l-2.14.25c-.63.07-1.25-.19-1.65-.68l-4.1-3.45c-1.24-1.04.69-2.27 2.33-1.11Z"/><path data-name="Path 9786" d="M23.46 8c1.27.06 2.44.69 3.2 1.71.29.35.81.4 1.16.11.04-.03.07-.07.11-.11A4.24 4.24 0 0 1 31.13 8c1.33.01 2.59.61 3.45 1.63a5.894 5.894 0 0 1 1.29 3.78 5.214 5.214 0 0 1-1.75 3.74l-5.3 5.07c-.9.64-2.11.65-3.02.02l-5.32-5.09a5.197 5.197 0 0 1-1.75-3.74 5.95 5.95 0 0 1 1.29-3.78A4.565 4.565 0 0 1 23.47 8Z"/></g></symbol><symbol id="icon-close" viewBox="0 0 14.1 14.1"><g style="enable-background:new 0 0 14.1 14.1"><path d="m8.5 7.1 4.9-4.9c.4-.4.4-1 0-1.4s-1-.4-1.4 0L7.1 5.7l-5-5C1.7.3 1.1.3.7.7s-.4 1 0 1.4L5.6 7 .7 12c-.4.4-.4 1 0 1.4.2.2.5.3.7.3s.5-.1.7-.3L7 8.5l4.9 4.9c.2.2.5.3.7.3s.5-.1.7-.3c.4-.4.4-1 0-1.4L8.5 7.1z"/></g></symbol><symbol id="icon-czone" viewBox="0 0 20 20"><path data-name="Icon awesome-globe" d="M13.57 6.13C12.98 2.53 11.61 0 10 0S7.02 2.53 6.43 6.13h7.14ZM6.13 10c0 .86.04 1.72.13 2.58h7.47c.09-.86.13-1.72.13-2.58 0-.86-.04-1.72-.13-2.58H6.26c-.09.86-.13 1.72-.13 2.58Zm13.1-3.87A9.99 9.99 0 0 0 12.85.42c1.09 1.73 1.78 3.68 2.02 5.71h4.36ZM7.15.42A9.996 9.996 0 0 0 .78 6.13h4.35c.23-2.03.92-3.98 2.01-5.71Zm12.51 7h-4.63c.09.85.13 1.71.13 2.58s-.05 1.73-.13 2.58h4.62a9.786 9.786 0 0 0 .01-5.16ZM4.84 10c0-.87.05-1.73.13-2.58H.35a9.82 9.82 0 0 0 0 5.16h4.62c-.08-.85-.13-1.71-.13-2.58Zm1.59 3.87C7.02 17.47 8.39 20 10 20s2.98-2.53 3.57-6.13H6.43Zm6.42 5.71c2.87-.86 5.21-2.95 6.37-5.71h-4.36c-.24 2.03-.92 3.98-2.02 5.71ZM.78 13.87a9.996 9.996 0 0 0 6.37 5.71 13.735 13.735 0 0 1-2.02-5.71H.77Z"/></symbol><symbol id="icon-date" viewBox="0 0 21.44 23.6"><g data-name="Icon feather-calendar" fill="none" stroke="#fff" stroke-linecap="round" stroke-linejoin="round" stroke-width="2"><path data-name="Path 14893" d="M3.16 4h15.12c1.17-.03 2.13.9 2.16 2.07v14.47a2.12 2.12 0 0 1-2.16 2.07H3.16c-1.17.03-2.13-.9-2.16-2.07V6.07A2.12 2.12 0 0 1 3.16 4Z"/><path data-name="Path 14894" d="M15.04 1v6"/><path data-name="Path 14895" d="M6.4 1v6"/><path data-name="Path 14896" d="M1 9.64h19.44"/></g></symbol><symbol id="icon-dropdown" viewBox="0 0 10 5.72"><path data-name="Icon ionic-ios-arrow-down" d="M5 3.99 8.78.21c.28-.28.73-.28 1.01 0s.28.73 0 1.01L5.51 5.51c-.27.27-.7.28-.98.02L.21 1.23A.722.722 0 0 1 .17.22C.44-.07.89-.09 1.18.18l.04.04L5 4Z"/></symbol><symbol id="icon-email" viewBox="0 0 20 13.85"><g data-name="Icon ionic-ios-mail"><path data-name="Path 10721" d="m19.84 1.7-5.17 5.27s-.04.09 0 .13l3.62 3.86c.24.24.25.64 0 .88a.64.64 0 0 1-.89 0L13.79 8s-.1-.04-.14 0l-.88.89c-.73.74-1.72 1.16-2.76 1.16-1.06 0-2.08-.44-2.82-1.2l-.85-.86s-.1-.04-.14 0l-3.61 3.85a.64.64 0 0 1-.89 0 .619.619 0 0 1 0-.88L5.32 7.1s.03-.1 0-.14L.16 1.7s-.11-.03-.14.01c-.01.02-.02.03-.02.05v10.55c0 .85.69 1.54 1.54 1.54h16.92c.85 0 1.54-.69 1.54-1.54V1.77c0-.05-.05-.1-.11-.09-.02 0-.04 0-.05.02Z"/><path data-name="Path 10722" d="M10 8.8a2.6 2.6 0 0 0 1.88-.79L19.42.34c-.27-.22-.61-.34-.95-.34H1.53C1.18 0 .85.12.58.34l7.54 7.68a2.6 2.6 0 0 0 1.88.79Z"/></g></symbol><symbol id="icon-facebook" viewBox="0 0 36 36"><path data-name="Icon awesome-facebook-square" d="M32.14 0H3.86A3.86 3.86 0 0 0 0 3.86v28.28A3.86 3.86 0 0 0 3.86 36h11V23.76H9.82V18h5.07v-4.39c0-5 3-7.75 7.52-7.75a30.42 30.42 0 0 1 4.47.39v4.9h-2.52c-2.47 0-3.25 1.53-3.25 3.11V18h5.53l-.88 5.76h-4.65V36h11A3.86 3.86 0 0 0 36 32.14V3.86A3.86 3.86 0 0 0 32.14 0Z"/></symbol><symbol id="icon-finance-pink" viewBox="0 0 48 48"><g data-name="Icon ionic-md-cash"><path data-name="Path 9779" d="M0 10.14v27.43h48V10.14H0Zm17.2 24H8.58c0-2.84-2.3-5.15-5.15-5.15v-8.56c3.79 0 6.85-3.07 6.86-6.86h6.91a16.003 16.003 0 0 0-3.48 10.29c-.07 3.73 1.16 7.37 3.48 10.28Zm27.37-5.15a5.173 5.173 0 0 0-5.14 5.15h-8.62c2.32-2.92 3.56-6.56 3.48-10.29a16.06 16.06 0 0 0-3.48-10.29h6.91c0 3.79 3.07 6.85 6.86 6.86v8.56Z" fill="#159dd8"/></g></symbol><symbol id="icon-finance" viewBox="0 0 48 48"><g data-name="Icon ionic-md-cash"><path data-name="Path 9779" d="M0 10.14v27.43h48V10.14H0Zm17.2 24H8.58c0-2.84-2.3-5.15-5.15-5.15v-8.56c3.79 0 6.85-3.07 6.86-6.86h6.91a16.003 16.003 0 0 0-3.48 10.29c-.07 3.73 1.16 7.37 3.48 10.28Zm27.37-5.15a5.173 5.173 0 0 0-5.14 5.15h-8.62c2.32-2.92 3.56-6.56 3.48-10.29a16.06 16.06 0 0 0-3.48-10.29h6.91c0 3.79 3.07 6.85 6.86 6.86v8.56Z"/></g></symbol><symbol id="icon-grad-circle" viewBox="0 0 359.16 359.16"><circle data-name="Ellipse 56" cx="179.58" cy="179.58" r="179.58" fill="url(#grad-circle-a)"/></symbol><symbol id="icon-grad-quater-circle-rotated" viewBox="0 0 96 96"><g style="enable-background:new 0 0 96 96"><clipPath id="grad-quater-circle-rotated-b"><use xlink:href="#grad-quater-circle-rotated-a" style="overflow:visible"/></clipPath><g style="clip-path:url(#grad-quater-circle-rotated-b)"><linearGradient id="grad-quater-circle-rotated-c" gradientUnits="userSpaceOnUse" x1="-1153.765" y1="-115.466" x2="-1153.145" y2="-114.746" gradientTransform="matrix(0 192 -192 0 -22005.12 221560)"><stop offset="0" style="stop-color:#159dd8"/><stop offset="1" style="stop-color:#268d44"/></linearGradient><circle style="fill:url(#grad-quater-circle-rotated-c)" cx="96" cy="96" r="96"/></g></g></symbol><symbol id="icon-grad-quater-circle" viewBox="0 0 96 96"><g data-name="Mask Group 13" clip-path="url(#grad-quater-circle-a)"><circle data-name="Ellipse 30" cx="96" r="96" fill="url(#grad-quater-circle-b)"/></g></symbol><symbol id="icon-grad-quater-ring" viewBox="0 0 96 95.33"><g data-name="Mask Group 26" clip-path="url(#grad-quater-ring-a)"><path data-name="Path 10719" d="M.51 10.97c-46.59 0-84.36 37.77-84.36 84.36 0 46.59 37.77 84.36 84.36 84.36 46.59 0 84.36-37.77 84.36-84.36 0-46.59-37.77-84.36-84.36-84.36m-95.18 84.36C-94.67 42.77-52.05.15.51.15s95.18 42.62 95.18 95.18S53.08 190.51.51 190.51c-52.57 0-95.18-42.61-95.18-95.18Z" fill="url(#grad-quater-ring-b)"/></g></symbol><symbol id="icon-grad-ring" viewBox="0 0 120 120"><g style="enable-background:new 0 0 120 120"><style>.st0{fill:url(#Path_10730_00000039829756091238701640000003923026094141594262_)}</style><linearGradient id="Path_10730_00000008121140825338499060000018272372624917674928_" gradientUnits="userSpaceOnUse" x1="-1144.485" y1="-126.61" x2="-1145.465" y2="-126.61" gradientTransform="rotate(180 -68668 -7566.6) scale(120)"><stop offset="0" style="stop-color:#3298ff"/><stop offset="1" style="stop-color:#268d44"/></linearGradient><path id="Path_10730" style="fill:url(#Path_10730_00000008121140825338499060000018272372624917674928_)" d="M6.8 60c0 29.4 23.8 53.2 53.2 53.2s53.2-23.8 53.2-53.2S89.4 6.8 60 6.8 6.8 30.6 6.8 60M60 120C26.9 120 0 93.1 0 60S26.9 0 60 0s60 26.9 60 60-26.9 60-60 60z"/></g></symbol><symbol id="icon-half-circle-full-shape-top" viewBox="0 0 120 60"><g style="enable-background:new 0 0 120 60"><path d="M60 120C26.9 120 0 93.1 0 60S26.9 0 60 0s60 26.9 60 60-26.9 60-60 60z"/></g></symbol><symbol id="icon-half-circle-shape-top" viewBox="0 0 120 60.5"><g style="enable-background:new 0 0 120 60.5"><path d="M6.8 60.5c0 29.4 23.8 53.2 53.2 53.2s53.2-23.8 53.2-53.2S89.4 7.3 60 7.3 6.8 31.1 6.8 60.5m53.2 60c-33.1 0-60-26.9-60-60S26.9.5 60 .5s60 26.9 60 60-26.9 60-60 60z"/></g></symbol><symbol id="icon-half-circle-shape" viewBox="0 0 60 120"><g style="enable-background:new 0 0 60 120"><path d="M6.8 60c0 29.4 23.8 53.2 53.2 53.2s53.2-23.8 53.2-53.2S89.4 6.8 60 6.8 6.8 30.6 6.8 60M60 120C26.9 120 0 93.1 0 60S26.9 0 60 0s60 26.9 60 60-26.9 60-60 60z"/></g></symbol><symbol id="icon-higher-education-pink" viewBox="0 0 48 48"><g data-name="Group 4023" fill="#159dd8"><path data-name="Path 9780" d="M24.03 27.82c-.65 0-1.29-.09-1.92-.25l-12.02-3.18v8.64c0 .62.35 1.19.91 1.46 1.72.81 5.96 2.48 13.03 2.48s11.31-1.62 13.03-2.48c.55-.28.9-.85.91-1.46v-8.64l-12.02 3.18c-.63.16-1.27.24-1.92.25Z"/><path data-name="Path 9781" d="m47.36 17.06-22.22-5.91c-.74-.2-1.53-.2-2.27 0L.64 17.06a.863.863 0 0 0 0 1.67l22.22 5.91c.74.2 1.53.2 2.27 0l16.82-4.44v6.11c-.96.35-1.6 1.25-1.62 2.27a2.43 2.43 0 0 0 2.42 2.43 2.43 2.43 0 0 0 2.43-2.42c0-1.03-.65-1.94-1.62-2.28v-6.56l3.74-1.01c.46-.09.76-.54.67-1.01a.839.839 0 0 0-.62-.66Z"/></g></symbol><symbol id="icon-higher-eduucation" viewBox="0 0 48 48"><g data-name="Group 4023"><path data-name="Path 9780" d="M24.03 27.82c-.65 0-1.29-.09-1.92-.25l-12.02-3.18v8.64c0 .62.35 1.19.91 1.46 1.72.81 5.96 2.48 13.03 2.48s11.31-1.62 13.03-2.48c.55-.28.9-.85.91-1.46v-8.64l-12.02 3.18c-.63.16-1.27.24-1.92.25Z"/><path data-name="Path 9781" d="m47.36 17.06-22.22-5.91c-.74-.2-1.53-.2-2.27 0L.64 17.06a.863.863 0 0 0 0 1.67l22.22 5.91c.74.2 1.53.2 2.27 0l16.82-4.44v6.11c-.96.35-1.6 1.25-1.62 2.27a2.43 2.43 0 0 0 2.42 2.43 2.43 2.43 0 0 0 2.43-2.42c0-1.03-.65-1.94-1.62-2.28v-6.56l3.74-1.01c.46-.09.76-.54.67-1.01a.839.839 0 0 0-.62-.66Z"/></g></symbol><symbol id="icon-homepage-grad-ring" viewBox="0 0 1018.45 1018.45"><g data-name="Group 10978" clip-path="url(#homepage-grad-ring-a)"><path data-name="Rectangle 1387" fill="url(#homepage-grad-ring-b)" d="M0 0h1018.45v1018.45H0z"/></g></symbol><symbol id="icon-housing-pink" viewBox="0 0 48 48"><g data-name="Group 4030"><path data-name="Icon awesome-home" d="M23.36 14.68 8 27.33v13.65c0 .74.6 1.33 1.33 1.33l9.34-.02c.73 0 1.33-.6 1.33-1.33v-7.97c0-.74.6-1.33 1.33-1.33h5.33c.74 0 1.33.6 1.33 1.33v7.97c0 .74.59 1.33 1.33 1.34l9.33.03c.74 0 1.33-.6 1.33-1.33V27.34L24.62 14.7c-.37-.3-.9-.3-1.27 0Zm24.26 8.6-6.97-5.74V6c0-.55-.45-1-1-1h-4.67c-.55 0-1 .45-1 1v6.05l-7.46-6.13a4.008 4.008 0 0 0-5.08 0L.36 23.28a.99.99 0 0 0-.13 1.41l2.13 2.58a1 1 0 0 0 1.41.14l19.59-16.14c.37-.3.9-.3 1.27 0l19.6 16.14c.43.35 1.06.29 1.41-.13l2.12-2.58a1 1 0 0 0-.14-1.41Z" fill="#159dd8"/></g></symbol><symbol id="icon-housing" viewBox="0 0 48 48"><g data-name="Group 4030"><path data-name="Icon awesome-home" d="M23.36 14.68 8 27.33v13.65c0 .74.6 1.33 1.33 1.33l9.34-.02c.73 0 1.33-.6 1.33-1.33v-7.97c0-.74.6-1.33 1.33-1.33h5.33c.74 0 1.33.6 1.33 1.33v7.97c0 .74.59 1.33 1.33 1.34l9.33.03c.74 0 1.33-.6 1.33-1.33V27.34L24.62 14.7c-.37-.3-.9-.3-1.27 0Zm24.26 8.6-6.97-5.74V6c0-.55-.45-1-1-1h-4.67c-.55 0-1 .45-1 1v6.05l-7.46-6.13a4.008 4.008 0 0 0-5.08 0L.36 23.28a.99.99 0 0 0-.13 1.41l2.13 2.58a1 1 0 0 0 1.41.14l19.59-16.14c.37-.3.9-.3 1.27 0l19.6 16.14c.43.35 1.06.29 1.41-.13l2.12-2.58a1 1 0 0 0-.14-1.41Z"/></g></symbol><symbol id="icon-info"><path d="M0 0h24v24H0z" fill="none"/><path d="M12 2C6.48 2 2 6.48 2 12s4.48 10 10 10 10-4.48 10-10S17.52 2 12 2zm1 15h-2v-6h2v6zm0-8h-2V7h2v2z"/></symbol><symbol id="icon-insurance-pink" viewBox="0 0 48 48"><g data-name="Group 4029"><path data-name="Path 9788" d="M24.2 0 5 7.2V24c0 14.4 19.2 24 19.2 24s19.2-9.6 19.2-24V7.2L24.2 0Zm11.39 18.91-13.5 13.5c-.46.46-1.2.46-1.66 0l-7.62-7.63a1.17 1.17 0 0 1 0-1.66l1.66-1.66c.46-.46 1.2-.46 1.66 0l5.14 5.14 11.01-11.01c.46-.46 1.2-.46 1.66 0l1.66 1.66c.46.46.46 1.2 0 1.66" fill="#159dd8"/></g></symbol><symbol id="icon-insurance" viewBox="0 0 48 48"><g data-name="Group 4029"><path data-name="Path 9788" d="M24.2 0 5 7.2V24c0 14.4 19.2 24 19.2 24s19.2-9.6 19.2-24V7.2L24.2 0Zm11.39 18.91-13.5 13.5c-.46.46-1.2.46-1.66 0l-7.62-7.63a1.17 1.17 0 0 1 0-1.66l1.66-1.66c.46-.46 1.2-.46 1.66 0l5.14 5.14 11.01-11.01c.46-.46 1.2-.46 1.66 0l1.66 1.66c.46.46.46 1.2 0 1.66"/></g></symbol><symbol id="icon-just-play" viewBox="0 0 137 121.2"><g style="enable-background:new 0 0 137 121.2"><path d="M102.9 64.6 66.7 86c-.8.4-1.6.7-2.5.7-2.7 0-4.9-2.2-4.9-4.9V39c0-.9.2-1.8.7-2.6 1.4-2.3 4.4-3.1 6.7-1.7l36.2 21.4c.7.4 1.3 1 1.7 1.7 1.4 2.4.6 5.4-1.7 6.8z" style="fill:#268d44"/><path d="M130.6 51.2 50.4 3.8C45.3.7 38.6 2.3 35.5 7.5c-1 1.7-1.6 3.7-1.6 5.7V108c0 6 4.9 10.9 10.9 10.9 2 0 3.9-.5 5.6-1.5L130.6 70c5.2-3.1 6.9-9.7 3.9-15-1-1.5-2.3-2.9-3.9-3.8z" style="fill:#fff"/></g></symbol><symbol id="icon-legal-pink" viewBox="0 0 48 48"><g data-name="Group 4026"><path data-name="Path 9787" d="M21.57 2.92C21.57.99 22.71 0 23.84 0s2.27.99 2.27 2.92v1.02c.79.5 1.39 1.24 1.72 2.12h11.46c.58 0 1.11.35 1.34.89s6.36 18.29 6.36 18.29c.04.09.03.2-.02.28-.05.09-.15.14-.25.14h-2.5c-.12 0-.23-.07-.27-.18l-4.64-14.32-4.59 14.32c-.04.11-.15.19-.28.18h-2.5c-.1 0-.2-.05-.25-.14a.31.31 0 0 1-.02-.28l5.45-16.28h-9.28c-.32.88-.92 1.62-1.72 2.12v30.08c0 .54.16 1.07.47 1.51 1.77 2.58 4.59 2.05 7.87 2.52 2.25.33 2.15 2.81.38 2.81H12.86c-1.77 0-1.87-2.48.38-2.81 3.28-.48 6.1.06 7.87-2.52.31-.44.47-.97.47-1.51V11.08c-.79-.5-1.39-1.24-1.72-2.12h-9.28l5.46 16.28c.04.09.03.2-.02.28-.05.09-.15.14-.25.14h-2.5c-.12 0-.23-.07-.27-.18L8.39 11.16l-4.6 14.32c-.04.11-.15.19-.28.18H1.02c-.1 0-.2-.05-.25-.14a.31.31 0 0 1-.02-.28L7.06 6.95c.23-.55.76-.9 1.34-.89h11.46c.32-.88.93-1.62 1.72-2.12V2.92Zm-4.67 26.3c-1 4.66-5.59 7.62-10.25 6.62a8.607 8.607 0 0 1-6.62-6.62c-.1-.44 0-.91.3-1.26.28-.36.71-.56 1.17-.56h13.94a1.504 1.504 0 0 1 1.47 1.81Zm30.75 0c-1 4.66-5.59 7.62-10.25 6.62-3.31-.71-5.9-3.3-6.62-6.62-.17-.81.34-1.61 1.15-1.78.1-.02.21-.03.31-.03h13.94c.83 0 1.5.67 1.5 1.5 0 .1-.01.21-.03.31ZM23.84 5.83h-.02c-.93 0-1.68.75-1.68 1.68 0 .93.75 1.68 1.68 1.68h.05c.93 0 1.68-.75 1.68-1.68 0-.93-.75-1.68-1.68-1.68h-.02Z" fill="#159dd8" fill-rule="evenodd"/></g></symbol><symbol id="icon-legal" viewBox="0 0 48 48"><g data-name="Group 4026"><path data-name="Path 9787" d="M21.57 2.92C21.57.99 22.71 0 23.84 0s2.27.99 2.27 2.92v1.02c.79.5 1.39 1.24 1.72 2.12h11.46c.58 0 1.11.35 1.34.89s6.36 18.29 6.36 18.29c.04.09.03.2-.02.28-.05.09-.15.14-.25.14h-2.5c-.12 0-.23-.07-.27-.18l-4.64-14.32-4.59 14.32c-.04.11-.15.19-.28.18h-2.5c-.1 0-.2-.05-.25-.14a.31.31 0 0 1-.02-.28l5.45-16.28h-9.28c-.32.88-.92 1.62-1.72 2.12v30.08c0 .54.16 1.07.47 1.51 1.77 2.58 4.59 2.05 7.87 2.52 2.25.33 2.15 2.81.38 2.81H12.86c-1.77 0-1.87-2.48.38-2.81 3.28-.48 6.1.06 7.87-2.52.31-.44.47-.97.47-1.51V11.08c-.79-.5-1.39-1.24-1.72-2.12h-9.28l5.46 16.28c.04.09.03.2-.02.28-.05.09-.15.14-.25.14h-2.5c-.12 0-.23-.07-.27-.18L8.39 11.16l-4.6 14.32c-.04.11-.15.19-.28.18H1.02c-.1 0-.2-.05-.25-.14a.31.31 0 0 1-.02-.28L7.06 6.95c.23-.55.76-.9 1.34-.89h11.46c.32-.88.93-1.62 1.72-2.12V2.92Zm-4.67 26.3c-1 4.66-5.59 7.62-10.25 6.62a8.607 8.607 0 0 1-6.62-6.62c-.1-.44 0-.91.3-1.26.28-.36.71-.56 1.17-.56h13.94a1.504 1.504 0 0 1 1.47 1.81Zm30.75 0c-1 4.66-5.59 7.62-10.25 6.62-3.31-.71-5.9-3.3-6.62-6.62-.17-.81.34-1.61 1.15-1.78.1-.02.21-.03.31-.03h13.94c.83 0 1.5.67 1.5 1.5 0 .1-.01.21-.03.31ZM23.84 5.83h-.02c-.93 0-1.68.75-1.68 1.68 0 .93.75 1.68 1.68 1.68h.05c.93 0 1.68-.75 1.68-1.68 0-.93-.75-1.68-1.68-1.68h-.02Z" fill-rule="evenodd"/></g></symbol><symbol id="icon-live-chat" viewBox="0 0 20 20"><path data-name="Icon material-chat-bubble" d="M18 0H2C.9 0 0 .9 0 2v18l4-4h14c1.1 0 2-.9 2-2V2c0-1.1-.9-2-2-2Z"/></symbol><symbol id="icon-local-government-pink" viewBox="0 0 48 48"><path data-name="Icon map-local-government" d="M45 28v20H30v-4H17v4H3V28h42Zm-9.05-3.65c-.55-2.51-1.93-4.77-3.91-6.4-1.98-1.64-4.32-1.95-7.03-2.95H25V8.67l.52-.14 1.15-.43c.41-.15.83-.27 1.26-.36.29-.08.59-.12.89-.14.48.01.95.07 1.41.18.57.14 1.17.29 1.79.46.64.19 1.21.34 1.77.47.44.11.89.16 1.34.17a9.25 9.25 0 0 0 1.88-.26V1.38c-.61.21-1.24.34-1.88.37-.46 0-.91-.07-1.35-.19-.55-.11-1.12-.27-1.76-.46-.57-.17-1.15-.32-1.73-.45-.42-.12-.85-.18-1.28-.19-1.38-.01-2.74.28-3.99.86V0h-2v15h-.06c-2.69 1-5.05 1.37-7.02 3.01-1.95 1.6-3.33 3.8-3.92 6.26a1.64 1.64 0 0 0-1.9 1.3c-.03.14-.03.28-.02.43h27.97c0-2-2.1-1.65-2.1-1.65Z" fill="#159dd8"/></symbol><symbol id="icon-local-government" viewBox="0 0 48 48"><path data-name="Icon map-local-government" d="M45 28v20H30v-4H17v4H3V28h42Zm-9.05-3.65c-.55-2.51-1.93-4.77-3.91-6.4-1.98-1.64-4.32-1.95-7.03-2.95H25V8.67l.52-.14 1.15-.43c.41-.15.83-.27 1.26-.36.29-.08.59-.12.89-.14.48.01.95.07 1.41.18.57.14 1.17.29 1.79.46.64.19 1.21.34 1.77.47.44.11.89.16 1.34.17a9.25 9.25 0 0 0 1.88-.26V1.38c-.61.21-1.24.34-1.88.37-.46 0-.91-.07-1.35-.19-.55-.11-1.12-.27-1.76-.46-.57-.17-1.15-.32-1.73-.45-.42-.12-.85-.18-1.28-.19-1.38-.01-2.74.28-3.99.86V0h-2v15h-.06c-2.69 1-5.05 1.37-7.02 3.01-1.95 1.6-3.33 3.8-3.92 6.26a1.64 1.64 0 0 0-1.9 1.3c-.03.14-.03.28-.02.43h27.97c0-2-2.1-1.65-2.1-1.65Z"/></symbol><symbol id="icon-minus" viewBox="0 0 22 2"><path data-name="Line 933" fill="none" stroke="#000" stroke-linecap="round" stroke-width="2" d="M1 1h20"/></symbol><symbol id="icon-partner-grad-x" viewBox="0 0 149 111.8"><path data-name="Path 14952" d="m0 17 61.52 38.9L0 95v15l72.8-46.4 76.2 48.2V97L84.09 55.9 149 15V0L72.8 48.4 0 2v15Z" fill="url(#partner-grad-x-a)"/></symbol><symbol id="icon-phone" viewBox="0 0 20 20"><path data-name="Icon awesome-phone-alt" d="m19.43 14.13-4.38-1.88a.942.942 0 0 0-1.09.27l-1.94 2.37A14.448 14.448 0 0 1 5.1 7.97l2.37-1.94c.32-.26.43-.71.27-1.09L5.86.57A.933.933 0 0 0 4.79.03L.73.96c-.43.1-.73.48-.73.92C0 11.88 8.11 20 18.12 20c.44 0 .82-.3.91-.73l.94-4.06c.1-.44-.13-.9-.55-1.08Z"/></symbol><symbol id="icon-pink-quater-ring-rotated" viewBox="0 0 144 143"><g style="enable-background:new 0 0 144 143"><style>.st0{clip-path:url(#SVGID_00000049910521837324707340000013571070477370580890_)}</style><clipPath id="SVGID_00000135684890017208100520000015639628545338446751_"><use xlink:href="#SVGID_1_" style="overflow:visible"/></clipPath><g style="clip-path:url(#SVGID_00000135684890017208100520000015639628545338446751_)"><g id="Mask_Group_23"><path id="Path_10694" d="M143.2 16.5c69.9 0 126.5 56.7 126.5 126.5S213 269.5 143.2 269.5 16.7 212.9 16.7 143 73.3 16.5 143.2 16.5M286 143C286 64.1 222.1.2 143.2.2S.5 64.1.5 143s63.9 142.8 142.8 142.8c78.8 0 142.7-64 142.7-142.8z" style="fill:none;stroke:#159dd8"/></g></g></g></symbol><symbol id="icon-pink-quater-ring" viewBox="0 0 144 143"><g data-name="Mask Group 23" clip-path="url(#pink-quater-ring-a)"><path data-name="Path 10694" d="M.77 126.54c-69.89 0-126.54-56.65-126.54-126.54S-69.12-126.54.77-126.54 127.31-69.89 127.31 0 70.66 126.54.77 126.54M-142 0C-142 78.85-78.08 142.77.77 142.77c78.85 0 142.77-63.92 142.77-142.77 0-78.85-63.92-142.77-142.77-142.77C-78.08-142.77-142-78.85-142 0Z" fill="none" stroke="#159dd8"/></g></symbol><symbol id="icon-play-pink" viewBox="0 0 74 74"><circle data-name="Ellipse 42" cx="37" cy="37" r="37" fill="#159dd8"/><path data-name="Icon awesome-play" d="m53.92 34.7-22-13.01c-1.41-.85-3.24-.4-4.1 1.01-.29.47-.43 1.02-.43 1.57v26.01c0 1.66 1.35 3 3 3 .54 0 1.06-.14 1.52-.42l22-13a3 3 0 0 0 1.06-4.11c-.26-.43-.62-.8-1.05-1.05Z" fill="#fff"/></symbol><symbol id="icon-play-purple" viewBox="0 0 122 123"><g data-name="Group 11072"><ellipse data-name="Ellipse 42" cx="61" cy="61.5" rx="61" ry="61.5" fill="#268d44"/><path data-name="Icon awesome-play" d="M88.94 57.02 52.76 35.63a4.91 4.91 0 0 0-7.45 4.24v42.78c0 2.72 2.2 4.93 4.93 4.93.89 0 1.76-.24 2.52-.69L88.94 65.5a4.934 4.934 0 0 0 1.74-6.75 4.837 4.837 0 0 0-1.74-1.74Z" fill="#fff"/></g></symbol><symbol id="icon-plus" viewBox="0 0 22 22"><g data-name="Group 13455" fill="none" stroke="#000" stroke-linecap="round" stroke-width="2"><path data-name="Line 932" d="M11 1v20"/><path data-name="Line 933" d="M1 11h20"/></g></symbol><symbol id="icon-professional-services-pink" viewBox="0 0 48 48"><path data-name="Icon awesome-briefcase" d="M30 31.5c0 .83-.67 1.5-1.5 1.5h-9c-.83 0-1.5-.67-1.5-1.5V27H0v13.5A4.614 4.614 0 0 0 4.5 45h39a4.614 4.614 0 0 0 4.5-4.5V27H30v4.5ZM43.5 12H36V7.5A4.614 4.614 0 0 0 31.5 3h-15A4.614 4.614 0 0 0 12 7.5V12H4.5A4.614 4.614 0 0 0 0 16.5V24h48v-7.5a4.614 4.614 0 0 0-4.5-4.5ZM30 12H18V9h12v3Z" fill="#159dd8"/></symbol><symbol id="icon-professional-services" viewBox="0 0 48 48"><path data-name="Icon awesome-briefcase" d="M30 31.5c0 .83-.67 1.5-1.5 1.5h-9c-.83 0-1.5-.67-1.5-1.5V27H0v13.5A4.614 4.614 0 0 0 4.5 45h39a4.614 4.614 0 0 0 4.5-4.5V27H30v4.5ZM43.5 12H36V7.5A4.614 4.614 0 0 0 31.5 3h-15A4.614 4.614 0 0 0 12 7.5V12H4.5A4.614 4.614 0 0 0 0 16.5V24h48v-7.5a4.614 4.614 0 0 0-4.5-4.5ZM30 12H18V9h12v3Z"/></symbol><symbol id="icon-purple-quater-ring" viewBox="0 0 144 143"><g data-name="Mask Group 23" clip-path="url(#purple-quater-ring-a)"><path data-name="Path 10694" d="M.77 126.54c-69.89 0-126.54-56.65-126.54-126.54S-69.12-126.54.77-126.54 127.31-69.89 127.31 0 70.66 126.54.77 126.54M-142 0C-142 78.85-78.08 142.77.77 142.77c78.85 0 142.77-63.92 142.77-142.77 0-78.85-63.92-142.77-142.77-142.77C-78.08-142.77-142-78.85-142 0Z" fill="none" stroke="#268d44"/></g></symbol><symbol id="icon-quote" viewBox="0 0 24 20.56"><g data-name="Group 3981"><path data-name="Path 9772" d="M8.12 20.56H1.59c-.88 0-1.59-.71-1.59-1.59v-5.36c-.07-2.24.18-4.48.74-6.65.52-1.67 1.47-3.17 2.75-4.37A13.18 13.18 0 0 1 7.14.15c.79-.36 1.73-.02 2.1.76l.54 1.13c.37.79.04 1.73-.74 2.11a6.973 6.973 0 0 0-2.7 2.11c-.57.81-.95 1.73-1.13 2.71a1.583 1.583 0 0 0 1.56 1.89h1.35c.88 0 1.59.71 1.59 1.59v6.53c0 .88-.71 1.59-1.59 1.59m14.07 0h-6.54c-.88 0-1.59-.71-1.59-1.59v-5.36c-.07-2.25.18-4.49.74-6.67.53-1.67 1.48-3.17 2.76-4.35 1.07-1.01 2.3-1.83 3.63-2.44.79-.37 1.73-.03 2.11.76l.53 1.13c.37.79.04 1.73-.75 2.11a6.973 6.973 0 0 0-2.7 2.11c-.57.81-.96 1.73-1.13 2.71a1.583 1.583 0 0 0 1.56 1.89h1.35c.88 0 1.59.71 1.59 1.59v6.53c0 .88-.71 1.59-1.59 1.59"/></g></symbol><symbol id="icon-read-time" viewBox="0 0 26 23.6"><g data-name="Icon feather-book-open" fill="none" stroke="#fff" stroke-linecap="round" stroke-linejoin="round" stroke-width="2"><path data-name="Path 14886" d="M1 1h7.2C10.85 1 13 3.15 13 5.8h0v16.8c0-1.99-1.61-3.6-3.6-3.6H1V1Z"/><path data-name="Path 14887" d="M25 1h-7.2C15.15 1 13 3.15 13 5.8v16.8c0-1.99 1.61-3.6 3.6-3.6H25V1Z"/></g></symbol><symbol id="icon-ring-mask" viewBox="0 0 120 120"><g style="enable-background:new 0 0 120 120"><path d="M6.8 60c0 29.4 23.8 53.2 53.2 53.2s53.2-23.8 53.2-53.2S89.4 6.8 60 6.8 6.8 30.6 6.8 60M60 120C26.9 120 0 93.1 0 60S26.9 0 60 0s60 26.9 60 60-26.9 60-60 60z"/></g></symbol><symbol id="icon-ring-quater-mask" viewBox="0 0 120 120"><g style="enable-background:new 0 0 120 120"><path d="M13.6 120c0 58.8 47.6 106.4 106.4 106.4S226.4 178.8 226.4 120 178.8 13.6 120 13.6 13.6 61.3 13.6 120M120 240.1c-66.3 0-120-53.7-120-120S53.7 0 120 0s120 53.7 120 120-53.7 120.1-120 120.1z"/></g></symbol><symbol id="icon-search" viewBox="0 0 38.2 38.2"><g style="enable-background:new 0 0 38.2 38.2"><circle class="st0" cx="14.6" cy="14.6" r="13.5"/><circle class="st0" cx="14.6" cy="14.6" r="12"/><path class="st0" d="M37.1 37.1 24.2 24.2"/></g></symbol><symbol id="icon-shape-quater-filled" viewBox="0 0 96 96"><g style="enable-background:new 0 0 96 96"><clipPath id="shape-quater-filled-b"><use xlink:href="#shape-quater-filled-a" style="overflow:visible"/></clipPath><circle cx="96" r="96" style="clip-path:url(#shape-quater-filled-b)"/><use xlink:href="#shape-quater-filled-a" style="overflow:visible;fill:none;stroke:url(#SVGID_00000126310316248761873770000017618427392406846903_);stroke-miterlimit:10"/></g></symbol><symbol id="icon-social-linkedin" viewBox="0 0 36 36"><path data-name="Icon awesome-linkedin" d="M33.42 0H2.56A2.58 2.58 0 0 0 0 2.59V33.4A2.58 2.58 0 0 0 2.56 36h30.86A2.59 2.59 0 0 0 36 33.4V2.59A2.59 2.59 0 0 0 33.42 0ZM10.88 30.85H5.54V13.68h5.35v17.17ZM8.21 11.33a3.1 3.1 0 1 1 3.09-3.1 3.1 3.1 0 0 1-3.09 3.09Zm22.67 19.52h-5.34V22.5c0-2 0-4.56-2.77-4.56s-3.2 2.17-3.2 4.41v8.5h-5.34V13.68h5.12V16h.07a5.62 5.62 0 0 1 5-2.77c5.4 0 6.4 3.56 6.4 8.19Z"/></symbol><symbol id="icon-social-twitter" viewBox="0 0 512 512"><g style="enable-background:new 0 0 512 512"><path class="st0" d="M446.4 0H65.6C29.6 0 0 29.6 0 65.6v380.8c0 36 29.6 65.6 65.6 65.6h380.8c36.1 0 65.6-29.6 65.6-65.6V65.6c0-36-29.6-65.6-65.6-65.6zm-54.5 187.4c.1 3 .2 6 .2 8.9 0 13.7-1.6 27.7-4.8 41.6-17.8 78.8-85.1 154.7-194.7 154.7-39.6 0-76.4-11.4-107.5-31 5.6.7 11.2 1 16.8 1 32.8 0 63.1-11 87.1-29.6-30.7-.5-56.6-20.5-65.5-47.9 4.3.8 8.7 1.3 13.2 1.3 6.4 0 12.6-.9 18.5-2.4-23.6-4.7-42.7-21-51.3-42.7-3.1-7.7-4.6-16.2-4.6-25v-.9c9.6 5.2 20.1 8.3 31.6 8.6-18.8-12.4-31.3-33.5-31.3-57.4 0-12.6 3.4-24.5 9.4-34.7 34.6 41.8 86.2 69.2 144.5 72.1-1.2-5.2-1.8-10.4-1.8-15.7 0-38.1 31.4-69 70.1-69 20.2 0 38.4 8.4 51.1 21.8 15.7-3 30.8-8.7 44.5-16.8-5.3 16.1-16.3 29.7-30.8 38.2 14.2-1.7 27.7-5.4 40.3-10.8-9.4 13.8-21.3 26-35 35.7z"/></g></symbol><symbol id="icon-social-youtube" viewBox="0 0 36 36"><path data-name="Exclusion 8" d="M32.14 36H3.86A3.86 3.86 0 0 1 0 32.14V3.86A3.86 3.86 0 0 1 3.86 0h28.28A3.86 3.86 0 0 1 36 3.86v28.28A3.86 3.86 0 0 1 32.14 36ZM17.64 9.14c-.08 0-7.48 0-9.32.5a3 3 0 0 0-2.11 2.12 32.08 32.08 0 0 0-.5 5.78 32 32 0 0 0 .5 5.78 3 3 0 0 0 2.11 2.09c1.84.5 9.24.5 9.32.5s7.48 0 9.31-.5a2.94 2.94 0 0 0 2.11-2.09 31.13 31.13 0 0 0 .5-5.78 31 31 0 0 0-.5-5.77A3 3 0 0 0 27 9.64c-1.88-.49-9.29-.5-9.36-.5Zm-2.44 12V14l6.23 3.55-6.23 3.54Z"/></symbol><symbol id="icon-square-mask" viewBox="0 0 120 120"><g style="enable-background:new 0 0 120 120"><path d="M0 0h120v120H0z"/></g></symbol><symbol id="icon-twitter" viewBox="0 0 36 36"><path data-name="Icon awesome-twitter-square" d="M32.14 0H3.86A3.86 3.86 0 0 0 0 3.86v28.28A3.86 3.86 0 0 0 3.86 36h28.28A3.86 3.86 0 0 0 36 32.14V3.86A3.86 3.86 0 0 0 32.14 0Zm-3.93 12.76v.68a14.9 14.9 0 0 1-14.79 15h-.21a15.08 15.08 0 0 1-8.09-2.36c.42 0 .85.06 1.27.06A10.6 10.6 0 0 0 13 23.89a5.27 5.27 0 0 1-5-3.66 5.62 5.62 0 0 0 2.38-.1A5.26 5.26 0 0 1 6.19 15v-.07a5.23 5.23 0 0 0 2.38.67 5.25 5.25 0 0 1-2.35-4.38 5.15 5.15 0 0 1 .71-2.66A15 15 0 0 0 17.8 14a5.28 5.28 0 0 1 9-4.81A10.64 10.64 0 0 0 30.14 8a5.33 5.33 0 0 1-2.32 2.9 10.7 10.7 0 0 0 3-.82 11.08 11.08 0 0 1-2.61 2.68Z"/></symbol><symbol id="icon-white-quater-ring-right" viewBox="0 0 144 143"><g style="enable-background:new 0 0 144 143"><style>.st0{clip-path:url(#SVGID_00000124140803976720147690000008195167363238123453_)}</style><clipPath id="SVGID_00000085227192215986582870000005116494921208279476_"><use xlink:href="#SVGID_1_" style="overflow:visible"/></clipPath><g style="clip-path:url(#SVGID_00000085227192215986582870000005116494921208279476_)"><g id="Mask_Group_23"><path id="Path_10694" d="M127 142.7C127 212.6 70.3 269.2.5 269.2S-126 212.6-126 142.7-69.4 16.2.5 16.2 127 72.8 127 142.7M.5 285.5c78.8 0 142.8-63.9 142.8-142.8S79.4 0 .5 0s-142.8 63.9-142.8 142.8c0 78.8 63.9 142.7 142.8 142.7z" style="fill:none;stroke:#fff"/></g></g></g></symbol><symbol id="icon-white-quater-ring" viewBox="0 0 144 143"><g data-name="Mask Group 23" clip-path="url(#white-quater-ring-a)"><path data-name="Path 10694" d="M.77 126.54c-69.89 0-126.54-56.65-126.54-126.54S-69.12-126.54.77-126.54 127.31-69.89 127.31 0 70.66 126.54.77 126.54M-142 0C-142 78.85-78.08 142.77.77 142.77c78.85 0 142.77-63.92 142.77-142.77 0-78.85-63.92-142.77-142.77-142.77C-78.08-142.77-142-78.85-142 0Z" fill="none" stroke="#fff"/></g></symbol><symbol id="icon-x-shape" viewBox="0 0 149 111.8"><g style="enable-background:new 0 0 149 111.8"><path d="m0 17 61.5 38.9L0 95v15l72.8-46.4 76.2 48.2V97L84.1 55.9 149 15V0L72.8 48.4 0 2v15z"/></g></symbol><symbol id="icon-youtube" viewBox="0 0 36 36"><path data-name="Icon awesome-youtube-square" d="m15.01 13.67 7.65 4.35-7.65 4.35v-8.7ZM36 3.86v28.29c0 2.13-1.73 3.86-3.86 3.86H3.86C1.73 36.01 0 34.28 0 32.15V3.86C0 1.73 1.73 0 3.86 0h28.29c2.13 0 3.86 1.73 3.86 3.86Zm-3.38 14.17c.01-2.38-.19-4.75-.61-7.09a3.66 3.66 0 0 0-2.59-2.6c-2.27-.62-11.43-.62-11.43-.62s-9.15 0-11.43.62a3.677 3.677 0 0 0-2.59 2.6 38.29 38.29 0 0 0-.61 7.09c-.01 2.38.19 4.75.61 7.09a3.608 3.608 0 0 0 2.59 2.56c2.27.61 11.43.61 11.43.61s9.15 0 11.43-.62c1.26-.33 2.25-1.3 2.59-2.56.42-2.34.63-4.71.61-7.08Z"/></symbol></svg>