<?xml version="1.0" encoding="UTF-8"?>
<svg xmlns="http://www.w3.org/2000/svg" viewBox="0 0 48 48">
  <path id="Icon_map-local-government" data-name="Icon map-local-government" d="M45,28v20h-15v-4h-13v4H3V28H45Zm-9.05-3.65c-.55-2.51-1.93-4.77-3.91-6.4-1.98-1.64-4.32-1.95-7.03-2.95h-.01v-6.33l.52-.14,1.15-.43c.41-.15,.83-.27,1.26-.36,.29-.08,.59-.12,.89-.14,.48,.01,.95,.07,1.41,.18,.57,.14,1.17,.29,1.79,.46,.64,.19,1.21,.34,1.77,.47,.44,.11,.89,.16,1.34,.17,.63-.02,1.26-.11,1.88-.26V1.38c-.61,.21-1.24,.34-1.88,.37-.46,0-.91-.07-1.35-.19-.55-.11-1.12-.27-1.76-.46-.57-.17-1.15-.32-1.73-.45-.42-.12-.85-.18-1.28-.19-1.38-.01-2.74,.28-3.99,.86V0h-2V15h-.06c-2.69,1-5.05,1.37-7.02,3.01-1.95,1.6-3.33,3.8-3.92,6.26-.88-.16-1.73,.42-1.9,1.3-.03,.14-.03,.28-.02,.43h27.97c0-2-2.1-1.65-2.1-1.65Z" fill="#159dd8"/>
</svg>
