<?xml version="1.0" encoding="UTF-8"?>
<svg xmlns="http://www.w3.org/2000/svg" viewBox="0 0 48 48">
  <g id="Group_4029" data-name="Group 4029">
    <path id="Path_9788" data-name="Path 9788" d="M24.2,0L5,7.2V24c0,14.4,19.2,24,19.2,24,0,0,19.2-9.6,19.2-24V7.2L24.2,0Zm11.39,18.91l-13.5,13.5c-.46,.46-1.2,.46-1.66,0l-7.62-7.63c-.46-.46-.46-1.2,0-1.66l1.66-1.66c.46-.46,1.2-.46,1.66,0,0,0,0,0,0,0l5.14,5.14,11.01-11.01c.46-.46,1.2-.46,1.66,0l1.66,1.66c.46,.46,.46,1.2,0,1.66" fill="#159dd8"/>
  </g>
</svg>
