<?xml version="1.0" encoding="UTF-8"?>
<svg xmlns="http://www.w3.org/2000/svg" viewBox="0 0 48 48">
  <g id="Group_4024" data-name="Group 4024">
    <path id="Path_9782" data-name="Path 9782" d="M5.29,19.73c.78-.93,1.97-.47,3.12,.38l4.4,3.25,5.76,2.63c.64,.29,.58,.72-.2,.8-.71,.06-1.39,.34-1.95,.78-.41,.29-.47,.37-.88,.18l-4.45-2.03-5.56-4.22c-.55-.39-.67-1.15-.28-1.7,.02-.03,.04-.05,.06-.08Z" fill="#159dd8"/>
    <path id="Path_9783" data-name="Path 9783" d="M5.43,23.7l4.83,3.2,4.45,1.59c.42,.15,.67,.29,.5,.68-.22,.55-.28,1.16-.17,1.74,.11,.27-.19,.54-.53,.45l-6.01-1.63c-1.05-.75-5.49-4.27-5.49-4.27-.53-.32-.7-1-.39-1.54,0,0,0-.01,.01-.02,.65-.82,1.63-.97,2.8-.2h0Z" fill="#159dd8"/>
    <path id="Path_9784" data-name="Path 9784" d="M1.79,29.81l15.46,3.55,9.54,.25,4.96,2.31c.76,.36,1.23-.41,.5-.84l-5-2.95-9.19-.35c-1.12-.17-1.63-.65-1.74-1.21-.21-1.07,.71-2.41,2.6-2.65l13.2-1.69c4.07-.83,8.29,.33,11.37,3.12l3.26,3.26c1.03,.93,1.48,2.35,1.16,3.7-.3,1.24-1,2.34-2,3.13-.94,.85-2.2,1.25-3.45,1.11-1.04-.11-2.06-.54-3.17-.73-1.65-.31-3.33-.42-5-.32l-10.7,.41c-1.46,.03-2.91-.27-4.25-.87L.98,32.73c-1.89-.65-.74-3.27,.8-2.92h.01Z" fill="#159dd8"/>
    <path id="Path_9785" data-name="Path 9785" d="M17.89,21.15l5.28,3.71,.77,.39c.49,.25,.39,.7-.49,.89l-2.14,.25c-.63,.07-1.25-.19-1.65-.68l-4.1-3.45c-1.24-1.04,.69-2.27,2.33-1.11h0Z" fill="#159dd8"/>
    <path id="Path_9786" data-name="Path 9786" d="M23.46,8c1.27,.06,2.44,.69,3.2,1.71,.29,.35,.81,.4,1.16,.11,.04-.03,.07-.07,.11-.11,.76-1.02,1.93-1.65,3.2-1.71,1.33,.01,2.59,.61,3.45,1.63,.86,1.07,1.31,2.41,1.29,3.78-.04,1.43-.68,2.79-1.75,3.74l-5.3,5.07c-.9,.64-2.11,.65-3.02,.02l-5.32-5.09c-1.07-.95-1.71-2.3-1.75-3.74-.02-1.37,.44-2.71,1.29-3.78,.86-1.02,2.12-1.62,3.45-1.63Z" fill="#159dd8"/>
  </g>
</svg>
